<svg width="27" height="27" viewBox="0 0 27 27" fill="none" xmlns="http://www.w3.org/2000/svg">
<path d="M0 0H27V27H0V0Z" fill="#C7001D"/>
<path d="M14.3702 20.484C14.3702 20.5211 14.3746 20.5558 14.3833 20.5882C14.3927 20.6198 14.4061 20.6474 14.4235 20.6711C14.4409 20.694 14.4626 20.7121 14.4887 20.7255C14.5147 20.739 14.5443 20.7457 14.5775 20.7457C14.6058 20.746 14.634 20.7408 14.6604 20.7303C14.6856 20.7192 14.7077 20.7034 14.7267 20.6829C14.7456 20.6624 14.7602 20.6375 14.7705 20.6083C14.7815 20.5783 14.7871 20.544 14.7871 20.5053C14.7889 20.4691 14.7857 20.4328 14.7776 20.3975C14.7697 20.3636 14.7571 20.334 14.7397 20.3087C14.7225 20.2836 14.6993 20.2633 14.6722 20.2495C14.6454 20.2345 14.6138 20.227 14.5775 20.227C14.5469 20.2265 14.5168 20.2339 14.4898 20.2483C14.4643 20.2619 14.4421 20.2809 14.4247 20.304C14.4065 20.3286 14.3928 20.3562 14.3844 20.3857C14.375 20.4165 14.3702 20.4492 14.3702 20.484ZM14.3702 20.793H14.2992V19.9404H14.3702V20.2779C14.3931 20.24 14.4243 20.2116 14.4638 20.1927C14.5028 20.1732 14.5457 20.1631 14.5893 20.163C14.6359 20.163 14.6761 20.1721 14.7101 20.1903C14.7438 20.2068 14.773 20.2312 14.7954 20.2613C14.819 20.292 14.8363 20.327 14.8463 20.3644C14.8573 20.4038 14.8629 20.4449 14.8629 20.4875C14.8629 20.5325 14.8578 20.5748 14.8475 20.6142C14.8372 20.6537 14.8206 20.688 14.7977 20.7173C14.775 20.7462 14.7458 20.7693 14.7125 20.7848C14.6778 20.8013 14.6355 20.8096 14.5858 20.8096C14.566 20.8096 14.5459 20.8069 14.5254 20.8013C14.5044 20.7956 14.4842 20.7877 14.465 20.7777C14.4458 20.7672 14.4279 20.7545 14.4117 20.7398C14.3958 20.7238 14.3826 20.7054 14.3726 20.6853H14.3702V20.793ZM15.0101 20.96L15.0385 20.9648C15.0488 20.9663 15.059 20.9671 15.0693 20.9671C15.0891 20.9671 15.1052 20.9608 15.1179 20.9482C15.1305 20.9355 15.1407 20.9201 15.1486 20.902C15.1575 20.8842 15.1646 20.8655 15.17 20.8463C15.1755 20.8274 15.1818 20.8112 15.1889 20.7978L14.9509 20.1796H15.0302L15.2268 20.7066L15.4234 20.1796H15.5004L15.2718 20.7848C15.2576 20.8235 15.2438 20.8582 15.2304 20.889C15.2177 20.9198 15.2039 20.9458 15.1889 20.9671C15.1747 20.9892 15.1585 21.0058 15.1404 21.0169C15.123 21.0287 15.1021 21.0346 15.0776 21.0346C15.0649 21.0346 15.0527 21.0338 15.0409 21.0323C15.0305 21.0308 15.0202 21.0288 15.0101 21.0263V20.96ZM16.6163 20.6794H16.6186L16.8045 19.9404H16.8874L16.6636 20.793H16.5748L16.377 20.0399H16.3747L16.1769 20.793H16.0881L15.8678 19.9404H15.9484L16.1319 20.6794H16.1343L16.332 19.9404H16.422L16.6163 20.6794ZM16.9996 20.793V19.9404H17.5668V20.0091H17.0801V20.317H17.5194V20.3857H17.0801V20.7244H17.5786V20.793H16.9996ZM17.7199 20.793V19.9404H17.8431L18.1226 20.6924H18.1249L18.3997 19.9404H18.5217V20.793H18.4411V20.0328H18.4388L18.1593 20.793H18.0835L17.8028 20.0328H17.8005V20.793H17.7199ZM18.6318 20.793L18.9669 19.9404H19.0581L19.3849 20.793H19.302L19.2038 20.5254H18.8153L18.7147 20.793H18.6318ZM18.8426 20.4567H19.1765L19.0095 20.0091L18.8426 20.4567ZM9.14455 18.6307H8.33872L8.21542 18.8983H7.62611V18.8216L8.61535 16.7214H8.87394L9.85262 18.8216V18.8983H9.27084L9.14455 18.6307ZM8.74164 17.6385L8.51915 18.1587H8.96564L8.74164 17.6385ZM11.8074 16.7424V18.3932H12.5877V18.8983H11.2451V16.7424H11.8074ZM15.585 18.6307H14.7793L14.656 18.8983H14.0667V18.8216L15.0559 16.7214H15.3145L16.2932 18.8216V18.8983H15.7113L15.585 18.6307ZM15.1822 17.6385L14.9596 18.1587H15.4062L15.1822 17.6385ZM18.2326 17.2355H17.7034V16.7424H19.3045V17.2355H18.7783V18.8983H18.2326V17.2355ZM6.584 15.253H13.738C13.8788 15.253 13.9704 15.1048 13.9074 14.9788L13.7603 14.6846L13.4524 14.1398L13.4366 14.1134C13.4197 14.0853 13.3959 14.0621 13.3674 14.046C13.339 14.0299 13.3068 14.0214 13.2741 14.0214H8.73917C8.59262 14.0214 8.50153 13.8621 8.57594 13.7358L11.5377 8.70719C11.6107 8.58322 11.7898 8.58265 11.8636 8.70619L15.7183 15.1607C15.7352 15.1888 15.759 15.2121 15.7875 15.2283C15.816 15.2445 15.8482 15.253 15.881 15.253H20.2768C20.4227 15.253 20.5139 15.0951 20.4409 14.9688L15.1887 5.87403C15.1721 5.84523 15.1482 5.82131 15.1194 5.80468C15.0906 5.78805 15.0579 5.7793 15.0246 5.7793H14.0829C13.9383 5.7793 13.847 5.93471 13.9174 6.06104L18.198 13.7397C18.2684 13.866 18.1771 14.0214 18.0325 14.0214H16.6165C16.5834 14.0214 16.5509 14.0127 16.5222 13.9962C16.4934 13.9797 16.4695 13.956 16.4529 13.9273L11.8967 6.11021C11.88 6.08159 11.8562 6.05783 11.8274 6.04133C11.7987 6.02482 11.7662 6.01613 11.733 6.01614H11.714C11.6809 6.01614 11.6483 6.02484 11.6196 6.04136C11.5908 6.05789 11.5669 6.08166 11.5503 6.11031L6.42025 14.9246C6.4034 14.9535 6.39452 14.9864 6.39453 15.0199V15.0635C6.39453 15.1138 6.41449 15.162 6.45003 15.1975C6.48556 15.233 6.53375 15.253 6.584 15.253Z" fill="white"/>
</svg>
