<svg width="20" height="20" viewBox="0 0 20 20" fill="none" xmlns="http://www.w3.org/2000/svg">
<path d="M14.6641 9.10983C15.9993 9.10983 17.0825 8.0274 17.0825 6.69212C17.0825 5.35684 15.9993 4.27441 14.6641 4.27441" stroke="#828282" stroke-width="1.5" stroke-linecap="round" stroke-linejoin="round"/>
<path d="M15.7734 11.7373C16.1722 11.7648 16.5686 11.8213 16.959 11.9092C17.5014 12.0154 18.1537 12.2377 18.3859 12.7242C18.5341 13.0359 18.5341 13.3988 18.3859 13.7112C18.1545 14.1978 17.5014 14.4193 16.959 14.5308" stroke="#828282" stroke-width="1.5" stroke-linecap="round" stroke-linejoin="round"/>
<path d="M5.24269 9.10983C3.90741 9.10983 2.82422 8.0274 2.82422 6.69212C2.82422 5.35684 3.90741 4.27441 5.24269 4.27441" stroke="#828282" stroke-width="1.5" stroke-linecap="round" stroke-linejoin="round"/>
<path d="M4.1297 11.7373C3.73095 11.7648 3.3345 11.8213 2.94415 11.9092C2.40179 12.0154 1.74943 12.2377 1.51797 12.7242C1.36901 13.0359 1.36901 13.3988 1.51797 13.7112C1.74866 14.1978 2.40179 14.4193 2.94415 14.5308" stroke="#828282" stroke-width="1.5" stroke-linecap="round" stroke-linejoin="round"/>
<path fill-rule="evenodd" clip-rule="evenodd" d="M9.94691 12.2583C12.6526 12.2583 14.9641 12.6677 14.9641 14.3063C14.9641 15.9441 12.6679 16.3688 9.94691 16.3688C7.24045 16.3688 4.92969 15.9593 4.92969 14.3208C4.92969 12.6823 7.22594 12.2583 9.94691 12.2583Z" stroke="#828282" stroke-width="1.5" stroke-linecap="round" stroke-linejoin="round"/>
<path fill-rule="evenodd" clip-rule="evenodd" d="M9.94958 9.92093C8.16514 9.92093 6.73438 8.49016 6.73438 6.70495C6.73438 4.92051 8.16514 3.48975 9.94958 3.48975C11.734 3.48975 13.1648 4.92051 13.1648 6.70495C13.1648 8.49016 11.734 9.92093 9.94958 9.92093Z" stroke="#828282" stroke-width="1.5" stroke-linecap="round" stroke-linejoin="round"/>
</svg>
