<svg width="32" height="32" viewBox="0 0 32 32" fill="none" xmlns="http://www.w3.org/2000/svg">
<path d="M29.7725 6.88546C29.7725 5.54875 28.6788 4.45508 27.3421 4.45508H9.11349C7.77678 4.45508 6.68311 5.54875 6.68311 6.88546V29.569C6.68311 30.9057 7.77678 31.9994 9.11349 31.9994H22.8844L29.7705 25.5184L29.7725 6.88546Z" fill="white"/>
<path opacity="0.8" d="M6.68324 6.88608C6.68324 5.54937 7.77691 4.4557 9.11362 4.4557H25.3169V2.43038C25.3169 1.09367 24.2233 0 22.8866 0H4.65792C3.32121 0 2.22754 1.09367 2.22754 2.43038V25.1139C2.22754 26.4506 3.32121 27.5443 4.65792 27.5443H6.68324V6.88608Z" fill="url(#paint0_linear_5649_41397)"/>
<path d="M25.3151 25.5186H29.7708L22.8848 31.9996V27.9489C22.8848 26.6122 23.9784 25.5186 25.3151 25.5186Z" fill="#F2F2F2"/>
<path d="M12.759 15.1898H23.6957C24.0315 15.1898 24.3033 14.9176 24.3033 14.5822C24.3033 14.2464 24.0314 13.9746 23.6957 13.9746H12.759C12.4232 13.9746 12.1514 14.2464 12.1514 14.5822C12.1514 14.9176 12.4231 15.1898 12.759 15.1898Z" fill="#1F4254"/>
<path d="M12.759 11.139H23.6957C24.0315 11.139 24.3033 10.8668 24.3033 10.5314C24.3033 10.1957 24.0314 9.92383 23.6957 9.92383H12.759C12.4232 9.92383 12.1514 10.1957 12.1514 10.5314C12.1514 10.8668 12.4231 11.139 12.759 11.139Z" fill="#1F4254"/>
<path d="M12.759 19.2396H23.6957C24.0315 19.2396 24.3033 18.9674 24.3033 18.632C24.3033 18.2963 24.0314 18.0244 23.6957 18.0244H12.759C12.4232 18.0244 12.1514 18.2963 12.1514 18.632C12.1514 18.9674 12.4231 19.2396 12.759 19.2396Z" fill="#1F4254"/>
<path d="M12.759 23.2904H18.8349C19.1707 23.2904 19.4425 23.0182 19.4425 22.6828C19.4425 22.347 19.1707 22.0752 18.8349 22.0752H12.759C12.4232 22.0752 12.1514 22.347 12.1514 22.6828C12.1514 23.0182 12.4231 23.2904 12.759 23.2904Z" fill="#1F4254"/>
<defs>
<linearGradient id="paint0_linear_5649_41397" x1="24.1992" y1="11.1879" x2="-2.92673" y2="15.9046" gradientUnits="userSpaceOnUse">
<stop stop-color="#079CBE"/>
<stop offset="1" stop-color="#00497F"/>
</linearGradient>
</defs>
</svg>
