<svg width="15" height="14" viewBox="0 0 15 14" fill="none" xmlns="http://www.w3.org/2000/svg">
    <path fill-rule="evenodd" clip-rule="evenodd"
        d="M11.1073 0.333008C13.3273 0.333008 15.0013 2.14434 15.0013 4.54634V9.12501C15.0013 10.3543 14.5666 11.465 13.7766 12.253C13.068 12.959 12.1486 13.333 11.118 13.333H4.5493C3.52064 13.333 2.60197 12.9597 1.89264 12.253C1.10264 11.465 0.667969 10.3543 0.667969 9.12501V4.54634C0.667969 2.14434 2.34197 0.333008 4.56197 0.333008H11.1073ZM11.1073 1.33301H4.56197C2.8853 1.33301 1.66797 2.68434 1.66797 4.54634V9.12501C1.66797 10.087 1.99864 10.9463 2.59864 11.5443C3.11597 12.061 3.7913 12.333 4.5513 12.333H11.1073C11.1073 12.333 11.114 12.333 11.118 12.333C11.8786 12.333 12.5533 12.061 13.0706 11.5443C13.6713 10.9463 14.0013 10.087 14.0013 9.12501V4.54634C14.0013 2.68434 12.784 1.33301 11.1073 1.33301ZM12.158 4.41887C12.332 4.63287 12.2993 4.94754 12.0853 5.12221L9.12263 7.53021C8.74797 7.82754 8.29997 7.97621 7.85264 7.97621C7.40664 7.97621 6.96197 7.82887 6.58997 7.53421L3.59997 5.12354C3.38464 4.95021 3.3513 4.63487 3.52397 4.42021C3.69797 4.20621 4.01264 4.17221 4.2273 4.34487L7.21463 6.75287C7.58997 7.05021 8.11864 7.05021 8.49663 6.75021L11.454 4.34621C11.6686 4.17087 11.9833 4.20421 12.158 4.41887Z"
        fill="#0085FF" />
</svg>
