<svg width="20" height="18" viewBox="0 0 20 18" fill="none" xmlns="http://www.w3.org/2000/svg">
    <path
        d="M7.76045 11.3667C7.18545 10.7927 6.83545 10.0127 6.83545 9.13768C6.83545 7.38468 8.24745 5.97168 9.99945 5.97168C10.8664 5.97168 11.6644 6.32268 12.2294 6.89668"
        stroke="#200E32" stroke-width="1.5" stroke-linecap="round" stroke-linejoin="round" />
    <path d="M13.1049 9.69873C12.8729 10.9887 11.8569 12.0067 10.5679 12.2407" stroke="#200E32" stroke-width="1.5"
        stroke-linecap="round" stroke-linejoin="round" />
    <path
        d="M4.65451 14.472C3.06751 13.226 1.72351 11.406 0.749512 9.13698C1.73351 6.85798 3.08651 5.02798 4.68351 3.77198C6.27051 2.51598 8.10151 1.83398 9.99951 1.83398C11.9085 1.83398 13.7385 2.52598 15.3355 3.79098"
        stroke="#200E32" stroke-width="1.5" stroke-linecap="round" stroke-linejoin="round" />
    <path
        d="M17.4473 5.99072C18.1353 6.90472 18.7403 7.95972 19.2493 9.13672C17.2823 13.6937 13.8063 16.4387 9.99929 16.4387C9.13629 16.4387 8.28529 16.2987 7.46729 16.0257"
        stroke="#200E32" stroke-width="1.5" stroke-linecap="round" stroke-linejoin="round" />
    <path d="M17.8868 1.24951L2.11279 17.0235" stroke="#200E32" stroke-width="1.5" stroke-linecap="round"
        stroke-linejoin="round" />
</svg>
