<svg width="32" height="32" viewBox="0 0 32 32" fill="none" xmlns="http://www.w3.org/2000/svg">
<path d="M13.4897 23.9821H3.84424" stroke="#092C4C" stroke-width="1.5" stroke-linecap="round" stroke-linejoin="round"/>
<path fill-rule="evenodd" clip-rule="evenodd" d="M28.1575 23.9822C28.1575 26.103 26.4383 27.8222 24.3175 27.8222C22.1968 27.8222 20.4775 26.103 20.4775 23.9822C20.4775 21.8599 22.1968 20.1422 24.3175 20.1422C26.4383 20.1422 28.1575 21.8599 28.1575 23.9822Z" stroke="#092C4C" stroke-width="1.5" stroke-linecap="round" stroke-linejoin="round"/>
<path d="M18.5107 8.34962H28.1578" stroke="#092C4C" stroke-width="1.5" stroke-linecap="round" stroke-linejoin="round"/>
<path fill-rule="evenodd" clip-rule="evenodd" d="M3.84375 8.34952C3.84375 10.4719 5.56297 12.1895 7.68375 12.1895C9.80453 12.1895 11.5238 10.4719 11.5238 8.34952C11.5238 6.22874 9.80453 4.50952 7.68375 4.50952C5.56297 4.50952 3.84375 6.22874 3.84375 8.34952Z" stroke="#092C4C" stroke-width="1.5" stroke-linecap="round" stroke-linejoin="round"/>
</svg>
