<svg width="27" height="27" viewBox="0 0 27 27" fill="none" xmlns="http://www.w3.org/2000/svg">
<path fill-rule="evenodd" clip-rule="evenodd" d="M0 0H27V27H0V0Z" fill="#D94F00"/>
<path fill-rule="evenodd" clip-rule="evenodd" d="M15.3616 5.23535H22.2831V12.0882H15.3616V5.23535ZM6.99392 15.5546V16.225H8.18684V19.7717H9.00939V16.1979H10.1201V15.5275L6.99392 15.555V15.5546ZM6.37956 16.3857V15.7153C5.71967 15.4205 4.96079 15.3314 4.18378 15.7153C2.90953 16.2783 2.86399 19.066 4.1387 19.611C4.87063 19.9774 6.39722 19.8075 6.55104 19.4857V17.2788H5.03328V17.8597H5.70154V19.0214C3.50576 20.0757 3.09913 15.0095 6.37956 16.3857ZM11.458 17.8239H12.2438C12.8944 17.851 13.0664 19.066 12.2169 19.0568H11.458V17.8239ZM11.458 16.1175H12.2438C12.8944 16.2337 12.6597 17.1897 12.2169 17.2164H11.458V16.1175ZM10.6447 15.4655V19.7359H12.8043C13.9066 19.3429 13.9521 17.6544 12.8043 17.4754C13.8615 17.3596 13.9159 15.4384 12.0905 15.4384L10.6447 15.4655ZM14.4577 16.6626V17.2967C15.0358 17.136 16.292 16.6892 16.1744 17.6365C15.0721 17.5649 14.322 17.7614 14.1956 18.4401C13.9879 19.9058 15.5781 20.0486 16.2469 19.3249V19.6735H17.0058V17.1002C16.8162 16.2691 15.5605 16.1621 14.4577 16.6626ZM15.099 18.3157C15.271 18.092 15.8221 18.1008 16.1925 18.2082V18.7712C15.5874 19.414 14.6115 19.1197 15.0995 18.3152L15.099 18.3157ZM18.5784 17.4221C18.7773 17.2077 19.8345 16.8054 19.9971 17.4221V19.6914H20.8462V17.288C20.6654 16.287 19.6983 16.1084 18.524 16.7875V16.4123H17.72V19.7093H18.5691L18.5784 17.4221ZM23.5118 16.3765L22.4006 17.8505L23.5754 19.6643L24.5964 19.6377L23.3045 17.8955L24.47 16.4032L23.5122 16.3765H23.5118ZM21.4791 15.2951H22.3193V19.6643H21.4786V15.2956L21.4791 15.2951Z" fill="white"/>
<path fill-rule="evenodd" clip-rule="evenodd" d="M15.3613 5.23535H22.2828V12.0882H15.3613V5.23535Z" fill="white"/>
</svg>
