<svg width="18" height="20" viewBox="0 0 18 20" fill="none" xmlns="http://www.w3.org/2000/svg">
<path d="M6.62971 17.3093V14.7537C6.6297 14.1037 7.15963 13.5755 7.81621 13.5712H10.2213C10.881 13.5712 11.4158 14.1006 11.4158 14.7537V14.7537V17.3173C11.4156 17.8692 11.8606 18.3202 12.4179 18.3332H14.0213C15.6196 18.3332 16.9154 17.0504 16.9154 15.468V15.468V8.19803C16.9068 7.57553 16.6116 6.99096 16.1137 6.6107L10.6301 2.23759C9.66948 1.47614 8.30387 1.47614 7.34321 2.23759L1.88372 6.61863C1.38391 6.99736 1.08819 7.58289 1.08203 8.20597V15.468C1.08203 17.0504 2.37776 18.3332 3.97612 18.3332H5.5795C6.15066 18.3332 6.61368 17.8748 6.61368 17.3093V17.3093" stroke="#828282" stroke-width="1.5" stroke-linecap="round" stroke-linejoin="round"/>
</svg>
