<svg width="16" height="18" viewBox="0 0 16 18" fill="none" xmlns="http://www.w3.org/2000/svg">
<path d="M5.61248 16.3114V13.7633C5.61248 13.1129 6.14364 12.5856 6.79886 12.5856H9.19401C9.50865 12.5856 9.81041 12.7097 10.0329 12.9305C10.2554 13.1514 10.3804 13.451 10.3804 13.7633V16.3114C10.3784 16.5819 10.4852 16.8419 10.6771 17.0338C10.8691 17.2257 11.1302 17.3337 11.4026 17.3337H13.0367C13.7999 17.3356 14.5325 17.036 15.0728 16.501C15.6132 15.966 15.9168 15.2395 15.9168 14.4818V7.22271C15.9168 6.61071 15.6436 6.03019 15.1707 5.63755L9.61185 1.23022C8.64488 0.45746 7.25942 0.482411 6.32132 1.28947L0.88934 5.63755C0.394113 6.01862 0.098123 6.60086 0.0834961 7.22271V14.4744C0.0834961 16.0535 1.37298 17.3337 2.96364 17.3337H4.5604C5.12618 17.3337 5.58599 16.8805 5.59009 16.3189L5.61248 16.3114Z" fill="#BDBDBD"/>
</svg>
