<svg width="24" height="24" viewBox="0 0 24 24" fill="currentColor" xmlns="http://www.w3.org/2000/svg">
<path d="M11.9782 0.0435498C11.5428 0.0435498 11.1509 0.435497 11.1945 0.870993V0.914543V3.91947C11.1509 4.35497 11.4557 4.74691 11.8911 4.83401C12.3266 4.87756 12.7184 4.57271 12.8055 4.13722C12.8055 4.05012 12.8055 4.00657 12.8055 3.91947V0.914543C12.8491 0.479046 12.5007 0.0435497 12.0653 0C12.0218 0.0435497 11.9782 0.0435498 11.9782 0.0435498ZM11.9782 6.3147C8.84319 6.3147 6.27421 8.84058 6.27421 12.0197C6.27421 15.1988 8.84319 17.7247 11.9782 17.7247C15.1133 17.7247 17.6823 15.1553 17.6823 12.0197C17.6387 8.88413 15.1133 6.35825 11.9782 6.3147ZM11.9782 8.14379C14.1118 8.14379 15.8535 9.88577 15.8535 12.0197C15.8535 14.1536 14.1118 15.8956 11.9782 15.8956V8.14379ZM0.918522 11.2358C0.483101 11.1923 0.0912212 11.4971 0.00413685 11.9326C-0.0394053 12.3681 0.26539 12.7601 0.700812 12.8472C0.787896 12.8472 0.831438 12.8472 0.918522 12.8472H3.92293C4.35835 12.8907 4.75023 12.5859 4.83732 12.1504C4.88086 11.7149 4.57606 11.3229 4.14064 11.2358C4.05356 11.2358 4.01002 11.2358 3.92293 11.2358H0.918522ZM20.0771 11.2358C19.6416 11.1923 19.2498 11.4971 19.1627 11.9326C19.1191 12.3681 19.4239 12.7601 19.8594 12.8472C19.9464 12.8472 19.99 12.8472 20.0771 12.8472H23.0815C23.5169 12.8907 23.9088 12.5859 23.9959 12.1504C24.0394 11.7149 23.7346 11.3229 23.2992 11.2358C23.2121 11.2358 23.1686 11.2358 23.0815 11.2358H20.0771ZM11.9782 19.2054C11.5428 19.2054 11.1509 19.5973 11.1945 20.0328V20.0764V23.0813C11.1509 23.5168 11.4557 23.9088 11.8911 23.9959C12.3266 24.0394 12.7184 23.7346 12.8055 23.2991C12.8055 23.212 12.8055 23.1684 12.8055 23.0813V20.0764C12.8491 19.6409 12.5007 19.2054 12.0653 19.1618C12.0218 19.2054 11.9782 19.2054 11.9782 19.2054ZM20.4254 3.52752C20.0771 3.17913 19.511 3.17913 19.1627 3.52752L17.0291 5.66146C16.6808 6.00985 16.6808 6.576 17.0291 6.9244C17.3775 7.27279 17.9435 7.27279 18.2918 6.9244L20.4254 4.79046C20.8173 4.48562 20.8173 3.91947 20.4254 3.52752C20.469 3.57107 20.469 3.57107 20.4254 3.52752ZM4.75023 3.52752C4.4019 3.17913 3.83585 3.17913 3.48751 3.52752C3.13917 3.87592 3.13917 4.44207 3.48751 4.79046L5.62108 6.9244C5.96941 7.27279 6.53546 7.27279 6.8838 6.9244C7.23213 6.576 7.23213 6.00985 6.8838 5.66146L4.75023 3.52752ZM18.3354 17.115C17.987 16.7666 17.421 16.7666 17.0727 17.115C16.7243 17.4634 16.7243 18.0296 17.0727 18.378L19.2062 20.5119C19.5546 20.8603 20.1206 20.8603 20.469 20.5119C20.8173 20.1635 20.8173 19.5973 20.469 19.2489L18.3354 17.115ZM6.8838 17.115C6.53546 16.7666 5.96941 16.7666 5.62108 17.115L3.48751 19.2489C3.13917 19.5973 3.13917 20.1635 3.48751 20.5119C3.83585 20.8603 4.4019 20.8603 4.75023 20.5119L6.8838 18.378C7.23213 18.0296 7.23213 17.4634 6.8838 17.115Z" fill="currentColor"/>
</svg>
