<svg width="12" height="12" viewBox="0 0 12 12" fill="none" xmlns="http://www.w3.org/2000/svg">
<g clip-path="url(#clip0_168_2134)">
<path d="M9.375 12H2.625C2.005 12 1.5 11.4955 1.5 10.875V5.625C1.5 5.0045 2.005 4.5 2.625 4.5H9.375C9.995 4.5 10.5 5.0045 10.5 5.625V10.875C10.5 11.4955 9.995 12 9.375 12ZM2.625 5.25C2.4185 5.25 2.25 5.418 2.25 5.625V10.875C2.25 11.082 2.4185 11.25 2.625 11.25H9.375C9.5815 11.25 9.75 11.082 9.75 10.875V5.625C9.75 5.418 9.5815 5.25 9.375 5.25H2.625Z" fill="#0085FF"/>
<path d="M8.625 5.25C8.418 5.25 8.25 5.082 8.25 4.875V3C8.25 1.7595 7.2405 0.75 6 0.75C4.7595 0.75 3.75 1.7595 3.75 3V4.875C3.75 5.082 3.582 5.25 3.375 5.25C3.168 5.25 3 5.082 3 4.875V3C3 1.3455 4.3455 0 6 0C7.6545 0 9 1.3455 9 3V4.875C9 5.082 8.832 5.25 8.625 5.25Z" fill="#0085FF"/>
<path d="M6 8.5C5.4485 8.5 5 8.0515 5 7.5C5 6.9485 5.4485 6.5 6 6.5C6.5515 6.5 7 6.9485 7 7.5C7 8.0515 6.5515 8.5 6 8.5ZM6 7.25C5.8625 7.25 5.75 7.362 5.75 7.5C5.75 7.638 5.8625 7.75 6 7.75C6.1375 7.75 6.25 7.638 6.25 7.5C6.25 7.362 6.1375 7.25 6 7.25Z" fill="#0085FF"/>
<path d="M6 10C5.793 10 5.625 9.832 5.625 9.625V8.25C5.625 8.043 5.793 7.875 6 7.875C6.207 7.875 6.375 8.043 6.375 8.25V9.625C6.375 9.832 6.207 10 6 10Z" fill="#0085FF"/>
</g>
<defs>
<clipPath id="clip0_168_2134">
<rect width="12" height="12" fill="white"/>
</clipPath>
</defs>
</svg>
