<svg width="465" height="465" viewBox="0 0 465 465" fill="none" xmlns="http://www.w3.org/2000/svg">
    <path
        d="M351.54 141.881C337.069 133.957 321.994 130.777 305.542 132.813C285.277 135.315 269.272 138.263 249.882 130.712C233.579 124.369 218.689 114.902 203.14 107.052C171.334 90.9168 139.76 85.9227 115.915 117.747C103.23 134.683 93.595 154.129 86.9455 174.645C76.1947 207.743 67.3597 244.395 72.205 278.963C78.3337 322.784 115.915 343.356 160.871 327.481C179.053 321.064 196.602 311.671 215.992 308.983C256.568 303.347 290.011 340.603 338.669 331.545C422.536 315.958 416.342 177.36 351.54 141.881Z"
        fill="#0085FF" />
    <path opacity="0.7"
        d="M351.54 141.881C337.069 133.957 321.994 130.777 305.542 132.813C285.277 135.315 269.272 138.263 249.882 130.712C233.579 124.369 218.689 114.902 203.14 107.052C171.334 90.9168 139.76 85.9227 115.915 117.747C103.23 134.683 93.595 154.129 86.9455 174.645C76.1947 207.743 67.3597 244.395 72.205 278.963C78.3337 322.784 115.915 343.356 160.871 327.481C179.053 321.064 196.602 311.671 215.992 308.983C256.568 303.347 290.011 340.603 338.669 331.545C422.536 315.958 416.342 177.36 351.54 141.881Z"
        fill="white" />
    <path
        d="M364.234 106.178C358.329 102.951 355.651 105.639 353.502 102.951C351.354 100.263 359.408 93.2883 343.272 86.3133C343.272 86.3133 342.203 71.2845 320.19 70.7451C298.177 70.2057 304.11 85.7739 298.204 89.5311C292.299 93.2883 290.69 87.42 284.785 91.14C278.879 94.86 281.567 102.412 276.74 103.481C271.913 104.551 265.459 98.6544 259.554 102.412C253.648 106.169 253.648 109.387 250.97 109.387C248.291 109.387 242.916 107.238 239.698 109.387C236.48 111.535 232.714 114.223 232.714 114.223H368.494C368.494 114.223 370.14 109.396 364.234 106.178Z"
        fill="#0085FF" />
    <path opacity="0.5"
        d="M364.234 106.178C358.329 102.951 355.651 105.639 353.502 102.951C351.354 100.263 359.408 93.2883 343.272 86.3133C343.272 86.3133 342.203 71.2845 320.19 70.7451C298.177 70.2057 304.11 85.7739 298.204 89.5311C292.299 93.2883 290.69 87.42 284.785 91.14C278.879 94.86 281.567 102.412 276.74 103.481C271.913 104.551 265.459 98.6544 259.554 102.412C253.648 106.169 253.648 109.387 250.97 109.387C248.291 109.387 242.916 107.238 239.698 109.387C236.48 111.535 232.714 114.223 232.714 114.223H368.494C368.494 114.223 370.14 109.396 364.234 106.178Z"
        fill="white" />
    <path
        d="M210.255 226.827C206.107 224.567 204.219 226.446 202.713 224.567C201.206 222.689 206.86 217.778 195.552 212.877C195.552 212.877 194.798 202.322 179.332 201.94C163.866 201.559 168.024 212.496 163.876 215.137C159.728 217.778 158.603 213.63 154.455 216.272C150.307 218.913 152.186 224.186 148.8 224.939C145.415 225.693 140.877 221.545 136.71 224.186C132.544 226.827 132.563 229.087 130.684 229.087C128.805 229.087 125.02 227.58 122.76 229.087C120.501 230.594 117.859 232.482 117.859 232.482H213.268C213.268 232.482 214.403 229.087 210.255 226.827Z"
        fill="white" />
    <path opacity="0.5"
        d="M210.255 226.827C206.107 224.567 204.219 226.446 202.713 224.567C201.206 222.689 206.86 217.778 195.552 212.877C195.552 212.877 194.798 202.322 179.332 201.94C163.866 201.559 168.024 212.496 163.876 215.137C159.728 217.778 158.603 213.63 154.455 216.272C150.307 218.913 152.186 224.186 148.8 224.939C145.415 225.693 140.877 221.545 136.71 224.186C132.544 226.827 132.563 229.087 130.684 229.087C128.805 229.087 125.02 227.58 122.76 229.087C120.501 230.594 117.859 232.482 117.859 232.482H213.268C213.268 232.482 214.403 229.087 210.255 226.827Z"
        fill="white" />
    <path
        d="M328.168 383.969H386.944C385.819 376.78 381.197 378.045 380.583 366.904C380.276 361.324 385.475 354.349 385.019 346.983C384.647 340.91 378.667 334.688 378.202 327.741C377.784 321.473 382.852 314.517 382.397 307.765C381.922 301.385 375.887 295.256 375.319 288.616C374.798 282.106 379.802 275.122 379.207 268.575C378.611 262.027 372.446 256.01 371.767 249.556C371.088 242.925 375.933 235.783 375.189 229.44C374.408 222.698 368.047 216.876 367.182 210.664C366.252 203.754 370.725 196.369 369.674 190.399C368.381 183.089 361.574 177.797 360.142 172.403C357.473 162.35 357.807 152.669 354.655 152.036C351.297 151.367 350.525 160.862 347.977 171.473C346.694 176.802 340.044 182.206 338.947 189.525C338.063 195.449 342.769 202.656 341.997 209.538C341.309 215.704 335.106 221.628 334.502 228.334C333.934 234.639 338.966 241.586 338.473 248.18C337.989 254.587 331.963 260.698 331.563 267.208C331.163 273.718 336.334 280.525 335.98 286.951C335.618 293.536 329.712 299.758 329.405 306.091C329.089 312.796 334.381 319.557 334.12 325.77C333.832 332.661 328.01 338.966 327.796 344.993C327.536 352.303 332.902 359.045 332.735 364.616C332.381 376.706 326.848 374.185 326.652 383.913L328.168 383.969Z"
        fill="#0085FF" />
    <path d="M353.399 171.353V381.254" stroke="black" stroke-miterlimit="10" />
    <path d="M362.579 193.356L353.009 201.624L345.179 191.18" stroke="black" stroke-miterlimit="10" />
    <path d="M362.579 229.896L353.009 238.154L345.179 227.72" stroke="black" stroke-miterlimit="10" />
    <path d="M362.579 264.25L353.009 272.518L345.179 262.074" stroke="black" stroke-miterlimit="10" />
    <path d="M362.579 305.142L353.009 313.4L345.179 302.966" stroke="black" stroke-miterlimit="10" />
    <path d="M362.579 346.462L353.009 354.721L345.179 344.286" stroke="black" stroke-miterlimit="10" />
    <path
        d="M288.132 383.969H333.507C332.633 378.389 329.071 379.394 328.596 370.8C328.355 366.467 332.363 361.11 332.019 355.418C331.731 350.768 327.118 345.923 326.755 340.538C326.43 335.702 330.373 330.308 329.991 325.119C329.629 320.19 324.951 315.465 324.532 310.341C324.114 305.217 327.992 299.916 327.536 294.866C327.081 289.816 322.31 285.166 321.807 280.191C321.287 275.066 325.025 269.561 324.449 264.65C323.844 259.452 318.934 254.96 318.273 250.17C317.529 244.832 321.008 239.131 320.189 234.528C319.194 228.882 313.94 224.79 312.842 220.633C310.778 212.877 311.038 205.391 308.601 204.907C306.007 204.386 305.412 211.715 303.449 219.917C302.463 224.028 297.321 228.204 296.474 233.867C295.795 238.443 299.422 244.004 298.827 249.315C298.297 254.076 293.517 258.615 293.043 263.823C292.605 268.686 296.493 274.053 296.112 279.14C295.74 284.087 291.099 288.802 290.773 293.824C290.448 298.846 294.493 304.11 294.186 309.067C293.88 314.024 289.35 318.953 289.118 323.845C288.867 329.016 292.95 334.233 292.754 339.032C292.531 344.351 288.039 349.262 287.872 353.912C287.667 359.547 291.815 364.765 291.685 369.052C291.406 378.352 287.137 376.446 286.988 383.932L288.132 383.969Z"
        fill="#0085FF" />
    <path d="M307.615 219.852V381.876" stroke="black" stroke-miterlimit="10" />
    <path d="M314.693 236.834L307.309 243.213L301.264 235.15" stroke="black" stroke-miterlimit="10" />
    <path d="M314.693 265.031L307.309 271.411L301.264 263.357" stroke="black" stroke-miterlimit="10" />
    <path d="M314.693 291.555L307.309 297.935L301.264 289.881" stroke="black" stroke-miterlimit="10" />
    <path d="M314.693 323.119L307.309 329.499L301.264 321.436" stroke="black" stroke-miterlimit="10" />
    <path d="M314.693 355.018L307.309 361.389L301.264 353.335" stroke="black" stroke-miterlimit="10" />
    <path d="M247.687 383.532V195.505H257.61V383.532" fill="#2E353A" />
    <path d="M247.687 383.532V195.505H257.61V383.532" stroke="#2E353A" stroke-linecap="round" stroke-linejoin="round" />
    <path d="M242.729 383.532V195.505H252.653V383.532" fill="#0085FF" />
    <path d="M242.729 383.532V195.505H252.653V383.532" stroke="#2E353A" stroke-linecap="round"
        stroke-linejoin="round" />
    <g style="mix-blend-mode:multiply" opacity="0.3">
        <path d="M252.653 195.505H242.729V217.825H252.653V195.505Z" fill="#2E353A" />
    </g>
    <path
        d="M285.073 122.1H211.547L243.595 200.815H317.13V154.147C317.13 149.938 316.301 145.77 314.689 141.881C313.078 137.992 310.717 134.459 307.74 131.483C304.763 128.507 301.229 126.146 297.34 124.536C293.45 122.926 289.282 122.098 285.073 122.1Z"
        fill="#0085FF" stroke="#2E353A" stroke-linecap="round" stroke-linejoin="round" />
    <g style="mix-blend-mode:multiply" opacity="0.3">
        <path
            d="M237.986 187.033L243.566 200.816H317.129V154.148C317.129 153.441 317.129 152.735 317.055 152.037H238.005L237.986 187.033Z"
            fill="black" />
    </g>
    <path d="M284.534 152.037H276.796" stroke="#2E353A" stroke-linecap="round" stroke-linejoin="round" />
    <path d="M317.055 152.037H293.638" stroke="#2E353A" stroke-linecap="round" stroke-linejoin="round" />
    <path
        d="M211.546 122.1C220.048 122.1 228.202 125.477 234.214 131.489C240.226 137.501 243.603 145.655 243.603 154.157V200.824H179.489V154.147C179.492 145.647 182.87 137.495 188.882 131.486C194.893 125.476 203.046 122.1 211.546 122.1Z"
        fill="#2E353A" stroke="#2E353A" stroke-linecap="round" stroke-linejoin="round" />
    <path d="M243.595 195.505H188.353V200.815H243.595V195.505Z" fill="#0085FF" stroke="#2E353A" stroke-linecap="round"
        stroke-linejoin="round" />
    <path d="M243.594 195.505H129.27V200.815H243.594V195.505Z" fill="#0085FF" stroke="#2E353A" stroke-linecap="round"
        stroke-linejoin="round" />
    <path opacity="0.3" d="M243.595 195.505H188.353V200.815H243.595V195.505Z" fill="black" />
    <path d="M289.852 103.128H266.909V119.245H289.852V103.128Z" fill="#2E353A" stroke="#2E353A" stroke-linecap="round"
        stroke-linejoin="round" />
    <path d="M268.769 103.128H263.812V153.348H268.769V103.128Z" fill="white" stroke="#2E353A" stroke-linecap="round"
        stroke-linejoin="round" />
    <path
        d="M266.286 160.165C269.368 160.165 271.866 157.667 271.866 154.585C271.866 151.503 269.368 149.005 266.286 149.005C263.204 149.005 260.706 151.503 260.706 154.585C260.706 157.667 263.204 160.165 266.286 160.165Z"
        fill="#2E353A" stroke="#2E353A" stroke-linecap="round" stroke-linejoin="round" />
    <path d="M184.456 134.989C197.402 141.564 219.908 152.101 240.665 157.402" stroke="white" stroke-linecap="round"
        stroke-linejoin="round" stroke-dasharray="2 4" />
    <path d="M173.594 129.27C173.594 129.27 177.742 131.613 184.456 135.026" stroke="#2E353A" stroke-linecap="round"
        stroke-linejoin="round" stroke-dasharray="2 4" />
    <path d="M168.935 128.926L178.244 106.81L110.735 90.3398L168.935 128.926Z" fill="white" stroke="#2E353A"
        stroke-width="1.2629" stroke-linecap="round" stroke-linejoin="round" />
    <path d="M173.473 109.489L168.935 128.926L110.735 90.3398L173.473 109.489Z" fill="#0085FF" stroke="#2E353A"
        stroke-width="1.2629" stroke-linecap="round" stroke-linejoin="round" />
    <path d="M173.473 109.489L162.88 118.565L110.735 90.3398L173.473 109.489Z" fill="white" stroke="#2E353A"
        stroke-width="1.2629" stroke-linecap="round" stroke-linejoin="round" />
    <path d="M178.244 106.81L187.674 102.979L110.735 90.3398L178.244 106.81Z" fill="white" stroke="#2E353A"
        stroke-width="1.2629" stroke-linecap="round" stroke-linejoin="round" />
    <path d="M155.821 125.484L158.007 126.824" stroke="#2E353A" stroke-linecap="round" stroke-linejoin="round" />
    <path d="M143.898 118.175L151.218 122.657" stroke="#2E353A" stroke-linecap="round" stroke-linejoin="round" />
    <path d="M135.678 171.259V147.274L204.293 158.304L135.678 171.259Z" fill="white" stroke="#2E353A"
        stroke-width="1.2629" stroke-linecap="round" stroke-linejoin="round" />
    <path d="M139.035 151.59L135.678 171.259L204.293 158.304L139.035 151.59Z" fill="#0085FF" stroke="#2E353A"
        stroke-width="1.2629" stroke-linecap="round" stroke-linejoin="round" />
    <path d="M139.035 151.59L145.275 164.061L204.293 158.304L139.035 151.59Z" fill="white" stroke="#2E353A"
        stroke-width="1.2629" stroke-linecap="round" stroke-linejoin="round" />
    <path d="M135.678 147.274L128.479 140.076L204.293 158.304L135.678 147.274Z" fill="white" stroke="#2E353A"
        stroke-width="1.2629" stroke-linecap="round" stroke-linejoin="round" />
    <path d="M160.248 170.813L166.2 169.604" stroke="#2E353A" stroke-linecap="round" stroke-linejoin="round" />
    <path d="M139.342 175.063L154.306 172.021" stroke="#2E353A" stroke-linecap="round" stroke-linejoin="round" />
    <path
        d="M127.41 169.78C127.41 169.78 73.4698 179.08 63.2398 227.44C53.0098 275.8 106.95 278.59 116.25 255.34C125.55 232.09 84.6298 222.79 75.3298 245.11C66.0298 267.43 93.9298 305.56 132.06 307.42C163.745 308.964 252.579 271.978 307.83 262.631C307.83 262.631 348.75 251.304 411.99 253.787"
        stroke="#2E353A" stroke-linecap="round" stroke-linejoin="round" stroke-dasharray="2 4" />
    <path d="M393.696 321.371H409.199" stroke="#2E353A" stroke-linecap="round" stroke-linejoin="round" />
    <path d="M393.696 344.305H409.199" stroke="#2E353A" stroke-linecap="round" stroke-linejoin="round" />
    <path d="M67.2666 343.691H391.837V321.984H67.2666" fill="white" />
    <path d="M67.2666 343.691H391.837V321.984H67.2666" stroke="#2E353A" stroke-linecap="round"
        stroke-linejoin="round" />
    <path
        d="M89.8281 383.681V274.48C89.8283 274.212 89.8828 273.947 89.9883 273.701C90.0938 273.455 90.2481 273.233 90.4419 273.048L98.9235 265.059C99.3055 264.702 99.8131 264.511 100.336 264.526C100.858 264.542 101.354 264.764 101.714 265.143L109.154 273.057C109.491 273.426 109.68 273.906 109.684 274.406V383.681"
        fill="#2E353A" />
    <path
        d="M89.8281 383.681V274.48C89.8283 274.212 89.8828 273.947 89.9883 273.701C90.0938 273.455 90.2481 273.233 90.4419 273.048L98.9235 265.059C99.3055 264.702 99.8131 264.511 100.336 264.526C100.858 264.542 101.354 264.764 101.714 265.143L109.154 273.057C109.491 273.426 109.68 273.906 109.684 274.406V383.681"
        stroke="#2E353A" stroke-linecap="round" stroke-linejoin="round" />
    <path
        d="M87.4199 384.611V274.48C87.4197 274.211 87.4748 273.945 87.5821 273.699C87.6893 273.453 87.8462 273.231 88.043 273.048L96.5246 265.059C96.7132 264.881 96.935 264.742 97.1773 264.65C97.4197 264.558 97.6778 264.515 97.937 264.522C98.1961 264.53 98.4512 264.589 98.6876 264.695C98.924 264.802 99.1371 264.954 99.3146 265.143L106.755 273.057C107.096 273.423 107.286 273.905 107.285 274.406V384.611"
        fill="white" />
    <path
        d="M87.4199 384.611V274.48C87.4197 274.211 87.4748 273.945 87.5821 273.699C87.6893 273.453 87.8462 273.231 88.043 273.048L96.5246 265.059C96.7132 264.881 96.935 264.742 97.1773 264.65C97.4197 264.558 97.6778 264.515 97.937 264.522C98.1961 264.53 98.4512 264.589 98.6876 264.695C98.924 264.802 99.1371 264.954 99.3146 265.143L106.755 273.057C107.096 273.423 107.286 273.905 107.285 274.406V384.611"
        stroke="#2E353A" stroke-linecap="round" stroke-linejoin="round" />
    <path
        d="M161.346 383.681V274.48C161.346 274.212 161.4 273.947 161.506 273.701C161.611 273.455 161.766 273.233 161.959 273.048L170.45 265.059C170.639 264.881 170.861 264.742 171.103 264.65C171.345 264.558 171.604 264.515 171.863 264.522C172.122 264.53 172.377 264.589 172.613 264.695C172.85 264.802 173.063 264.954 173.24 265.143L180.68 273.057C181.022 273.423 181.211 273.905 181.21 274.406V383.681"
        fill="#2E353A" />
    <path
        d="M161.346 383.681V274.48C161.346 274.212 161.4 273.947 161.506 273.701C161.611 273.455 161.766 273.233 161.959 273.048L170.45 265.059C170.639 264.881 170.861 264.742 171.103 264.65C171.345 264.558 171.604 264.515 171.863 264.522C172.122 264.53 172.377 264.589 172.613 264.695C172.85 264.802 173.063 264.954 173.24 265.143L180.68 273.057C181.022 273.423 181.211 273.905 181.21 274.406V383.681"
        stroke="#2E353A" stroke-linecap="round" stroke-linejoin="round" />
    <path
        d="M159.337 384.611V274.48C159.337 274.211 159.392 273.946 159.499 273.699C159.606 273.453 159.763 273.231 159.96 273.048L168.442 265.059C168.824 264.702 169.331 264.511 169.854 264.526C170.377 264.542 170.872 264.764 171.232 265.143L178.672 273.057C179.016 273.422 179.208 273.904 179.211 274.406V384.611"
        fill="white" />
    <path
        d="M159.337 384.611V274.48C159.337 274.211 159.392 273.946 159.499 273.699C159.606 273.453 159.763 273.231 159.96 273.048L168.442 265.059C168.824 264.702 169.331 264.511 169.854 264.526C170.377 264.542 170.872 264.764 171.232 265.143L178.672 273.057C179.016 273.422 179.208 273.904 179.211 274.406V384.611"
        stroke="#2E353A" stroke-linecap="round" stroke-linejoin="round" />
    <path
        d="M233.263 383.681V274.48C233.262 274.211 233.318 273.946 233.425 273.699C233.532 273.453 233.689 273.231 233.886 273.048L242.367 265.059C242.749 264.702 243.257 264.511 243.78 264.526C244.302 264.542 244.798 264.764 245.157 265.143L252.597 273.057C252.941 273.422 253.134 273.904 253.137 274.406V384.611"
        fill="#2E353A" />
    <path
        d="M233.263 383.681V274.48C233.262 274.211 233.318 273.946 233.425 273.699C233.532 273.453 233.689 273.231 233.886 273.048L242.367 265.059C242.749 264.702 243.257 264.511 243.78 264.526C244.302 264.542 244.798 264.764 245.157 265.143L252.597 273.057C252.941 273.422 253.134 273.904 253.137 274.406V384.611"
        stroke="#2E353A" stroke-linecap="round" stroke-linejoin="round" />
    <path
        d="M231.263 384.611V274.48C231.263 274.212 231.317 273.947 231.423 273.701C231.528 273.455 231.683 273.233 231.876 273.048L240.367 265.059C240.556 264.881 240.778 264.742 241.02 264.65C241.262 264.558 241.521 264.515 241.78 264.522C242.039 264.53 242.294 264.589 242.53 264.695C242.767 264.802 242.98 264.954 243.157 265.143L250.597 273.057C250.939 273.423 251.128 273.905 251.127 274.406V384.611"
        fill="white" />
    <path
        d="M231.263 384.611V274.48C231.263 274.212 231.317 273.947 231.423 273.701C231.528 273.455 231.683 273.233 231.876 273.048L240.367 265.059C240.556 264.881 240.778 264.742 241.02 264.65C241.262 264.558 241.521 264.515 241.78 264.522C242.039 264.53 242.294 264.589 242.53 264.695C242.767 264.802 242.98 264.954 243.157 265.143L250.597 273.057C250.939 273.423 251.128 273.905 251.127 274.406V384.611"
        stroke="#2E353A" stroke-linecap="round" stroke-linejoin="round" />
    <path
        d="M305.188 383.681V274.48C305.189 274.212 305.243 273.947 305.349 273.701C305.454 273.455 305.608 273.233 305.802 273.048L314.284 265.059C314.666 264.702 315.173 264.511 315.696 264.526C316.219 264.542 316.714 264.764 317.074 265.143L324.514 273.057C324.851 273.426 325.04 273.906 325.044 274.406V383.681"
        fill="#2E353A" />
    <path
        d="M305.188 383.681V274.48C305.189 274.212 305.243 273.947 305.349 273.701C305.454 273.455 305.608 273.233 305.802 273.048L314.284 265.059C314.666 264.702 315.173 264.511 315.696 264.526C316.219 264.542 316.714 264.764 317.074 265.143L324.514 273.057C324.851 273.426 325.04 273.906 325.044 274.406V383.681"
        stroke="#2E353A" stroke-linecap="round" stroke-linejoin="round" />
    <path
        d="M303.18 384.611V274.48C303.179 274.211 303.235 273.945 303.342 273.699C303.449 273.453 303.606 273.231 303.803 273.048L312.284 265.059C312.473 264.881 312.695 264.742 312.937 264.65C313.179 264.558 313.438 264.515 313.697 264.522C313.956 264.53 314.211 264.589 314.447 264.695C314.684 264.802 314.897 264.954 315.074 265.143L322.514 273.057C322.856 273.423 323.045 273.905 323.044 274.406V384.611"
        fill="white" />
    <path
        d="M303.18 384.611V274.48C303.179 274.211 303.235 273.945 303.342 273.699C303.449 273.453 303.606 273.231 303.803 273.048L312.284 265.059C312.473 264.881 312.695 264.742 312.937 264.65C313.179 264.558 313.438 264.515 313.697 264.522C313.956 264.53 314.211 264.589 314.447 264.695C314.684 264.802 314.897 264.954 315.074 265.143L322.514 273.057C322.856 273.423 323.045 273.905 323.044 274.406V384.611"
        stroke="#2E353A" stroke-linecap="round" stroke-linejoin="round" />
    <path
        d="M377.105 383.681V274.48C377.106 274.212 377.16 273.947 377.266 273.701C377.371 273.455 377.525 273.233 377.719 273.048L386.21 265.059C386.399 264.881 386.621 264.742 386.863 264.65C387.105 264.558 387.363 264.515 387.623 264.522C387.882 264.53 388.137 264.589 388.373 264.695C388.61 264.802 388.823 264.954 389 265.143L396.44 273.057C396.782 273.423 396.971 273.905 396.97 274.406V383.681"
        fill="#2E353A" />
    <path
        d="M377.105 383.681V274.48C377.106 274.212 377.16 273.947 377.266 273.701C377.371 273.455 377.525 273.233 377.719 273.048L386.21 265.059C386.399 264.881 386.621 264.742 386.863 264.65C387.105 264.558 387.363 264.515 387.623 264.522C387.882 264.53 388.137 264.589 388.373 264.695C388.61 264.802 388.823 264.954 389 265.143L396.44 273.057C396.782 273.423 396.971 273.905 396.97 274.406V383.681"
        stroke="#2E353A" stroke-linecap="round" stroke-linejoin="round" />
    <path
        d="M375.097 384.611V274.48C375.096 274.211 375.152 273.946 375.259 273.699C375.366 273.453 375.523 273.231 375.72 273.048L384.201 265.059C384.583 264.702 385.091 264.511 385.614 264.526C386.136 264.542 386.632 264.764 386.991 265.143L394.431 273.057C394.775 273.422 394.968 273.904 394.971 274.406V384.611"
        fill="white" />
    <path
        d="M375.097 384.611V274.48C375.096 274.211 375.152 273.946 375.259 273.699C375.366 273.453 375.523 273.231 375.72 273.048L384.201 265.059C384.583 264.702 385.091 264.511 385.614 264.526C386.136 264.542 386.632 264.764 386.991 265.143L394.431 273.057C394.775 273.422 394.968 273.904 394.971 274.406V384.611"
        stroke="#2E353A" stroke-linecap="round" stroke-linejoin="round" />
    <path d="M99.3047 265.143V273.103" stroke="#2E353A" stroke-linecap="round" stroke-linejoin="round" />
    <path d="M102.495 269.254V288.096" stroke="#2E353A" stroke-linecap="round" stroke-linejoin="round" />
    <path d="M163.252 270.797V294.633" stroke="#2E353A" stroke-linecap="round" stroke-linejoin="round" />
    <path d="M166.33 267.719V278.098" stroke="#2E353A" stroke-linecap="round" stroke-linejoin="round" />
    <path d="M240.367 265.06V288.486" stroke="#2E353A" stroke-linecap="round" stroke-linejoin="round" />
    <path d="M244.785 266.947V301.562" stroke="#2E353A" stroke-linecap="round" stroke-linejoin="round" />
    <path d="M306.695 270.797V296.939" stroke="#2E353A" stroke-linecap="round" stroke-linejoin="round" />
    <path d="M316.692 267.719V274.257" stroke="#2E353A" stroke-linecap="round" stroke-linejoin="round" />
    <path d="M381.681 267.328V281.176" stroke="#2E353A" stroke-linecap="round" stroke-linejoin="round" />
    <path d="M390.144 268.872V308.862" stroke="#2E353A" stroke-linecap="round" stroke-linejoin="round" />
    <path d="M374.762 327.322H366.299" stroke="#2E353A" stroke-linecap="round" stroke-linejoin="round" />
    <path d="M374.762 333.86H345.15" stroke="#2E353A" stroke-linecap="round" stroke-linejoin="round" />
    <path d="M264.39 333.86H250.933" stroke="#2E353A" stroke-linecap="round" stroke-linejoin="round" />
    <path d="M193.635 333.86H180.178" stroke="#2E353A" stroke-linecap="round" stroke-linejoin="round" />
    <path d="M87.1124 330.401H73.6553" stroke="#2E353A" stroke-linecap="round" stroke-linejoin="round" />
    <path d="M87.1132 336.549H81.7285" stroke="#2E353A" stroke-linecap="round" stroke-linejoin="round" />
    <path d="M257.471 330.401H250.933" stroke="#2E353A" stroke-linecap="round" stroke-linejoin="round" />
    <path d="M185.944 337.701H179.406" stroke="#2E353A" stroke-linecap="round" stroke-linejoin="round" />
    <path d="M158.639 337.701H152.102" stroke="#2E353A" stroke-linecap="round" stroke-linejoin="round" />
    <path d="M400.904 333.86H395.138" stroke="#2E353A" stroke-linecap="round" stroke-linejoin="round" />
    <path d="M408.595 333.86H405.136" stroke="#2E353A" stroke-linecap="round" stroke-linejoin="round" />
    <path
        d="M106.95 293.88C106.95 293.88 104.625 313.866 101.835 334.316C99.0452 354.767 104.16 375.692 105.555 377.552"
        stroke="#2E353A" stroke-linecap="round" stroke-linejoin="round" />
    <path d="M97.752 334.335C98.1984 330.345 98.5704 327.825 98.5704 327.825" stroke="#2E353A" stroke-linecap="round"
        stroke-linejoin="round" />
    <path
        d="M104.615 375.227C104.615 375.227 96.2451 373.367 96.2451 358.487C96.2451 352.377 96.6357 346.118 97.1007 340.817"
        stroke="#2E353A" stroke-linecap="round" stroke-linejoin="round" />
    <path d="M174.84 270.165C174.84 270.165 176.7 271.56 173.445 287.37C170.19 303.18 170.655 326.43 174.84 339.45"
        stroke="#2E353A" stroke-linecap="round" stroke-linejoin="round" />
    <path d="M179.49 299.46C179.49 299.46 174.84 313.41 178.095 332.94" stroke="#2E353A" stroke-linecap="round"
        stroke-linejoin="round" />
    <path
        d="M232.5 308.285C232.5 308.285 234.825 321.77 237.15 335.711C239.475 349.652 237.615 369.191 235.755 374.297C233.895 379.402 232.035 383.597 232.035 383.597"
        stroke="#2E353A" stroke-linecap="round" stroke-linejoin="round" />
    <path d="M241.26 376.762C239.186 383.123 236.61 375.692 236.61 375.692" stroke="#2E353A" stroke-linecap="round"
        stroke-linejoin="round" />
    <path d="M241.177 329.22C241.177 329.22 245.557 351.828 243.083 368.847" stroke="#2E353A" stroke-linecap="round"
        stroke-linejoin="round" />
    <path d="M231.569 336.66C231.569 336.66 236.219 346.425 232.034 355.725" stroke="#2E353A" stroke-linecap="round"
        stroke-linejoin="round" />
    <path d="M318.339 338.036C318.961 340.879 319.778 343.676 320.785 346.406" stroke="#2E353A" stroke-linecap="round"
        stroke-linejoin="round" />
    <path
        d="M322.179 289.695C319.229 299.062 317.356 308.734 316.599 318.525C316.322 323.479 316.599 328.448 317.427 333.34"
        stroke="#2E353A" stroke-linecap="round" stroke-linejoin="round" />
    <path
        d="M313.345 332.456C313.345 332.456 317.53 348.266 319.855 353.846C322.18 359.426 321.25 372.902 318.46 379.412"
        stroke="#2E353A" stroke-linecap="round" stroke-linejoin="round" />
    <path d="M376.101 296.67C376.101 296.67 385.401 313.41 376.566 340.836" stroke="#2E353A" stroke-linecap="round"
        stroke-linejoin="round" />
    <path
        d="M384.647 325.258C384.703 330.484 384.238 337.106 382.146 342.686C377.961 353.846 376.101 357.566 376.101 357.566"
        stroke="#2E353A" stroke-linecap="round" stroke-linejoin="round" />
    <path d="M384.006 316.2C384.006 316.2 384.313 318.2 384.499 321.278" stroke="#2E353A" stroke-linecap="round"
        stroke-linejoin="round" />
</svg>
