<svg width="20" height="20" viewBox="0 0 20 20" fill="none" xmlns="http://www.w3.org/2000/svg">
<path d="M17.8627 2.15198C17.4458 1.72416 16.8289 1.56477 16.2537 1.73255L2.83983 5.63326C2.23292 5.80187 1.80274 6.2859 1.68686 6.90079C1.56848 7.52658 1.98198 8.32098 2.5222 8.65317L6.71642 11.231C7.1466 11.4952 7.70183 11.429 8.0578 11.0699L12.8606 6.23724C13.1024 5.98559 13.5025 5.98559 13.7443 6.23724C13.9861 6.48051 13.9861 6.87478 13.7443 7.12644L8.93316 11.96C8.57635 12.3182 8.50966 12.876 8.77226 13.3089L11.335 17.5451C11.6351 18.0484 12.152 18.3337 12.7189 18.3337C12.7856 18.3337 12.8606 18.3337 12.9273 18.3253C13.5776 18.2414 14.0944 17.7968 14.2862 17.1676L18.2628 3.77098C18.4379 3.20056 18.2795 2.5798 17.8627 2.15198Z" fill="#BDBDBD"/>
</svg>
