<svg  viewBox="0 0 20 20" fill="currentColor" xmlns="http://www.w3.org/2000/svg">
<path fill-rule="evenodd" clip-rule="evenodd" d="M7.43797 13.6587H11.9264C12.2647 13.6587 12.5452 13.3753 12.5452 13.0337C12.5452 12.692 12.2647 12.417 11.9264 12.417H7.43797C7.09968 12.417 6.81916 12.692 6.81916 13.0337C6.81916 13.3753 7.09968 13.6587 7.43797 13.6587ZM10.2267 8.25034H7.43797C7.09968 8.25034 6.81916 8.53368 6.81916 8.87534C6.81916 9.21701 7.09968 9.49201 7.43797 9.49201H10.2267C10.565 9.49201 10.8456 9.21701 10.8456 8.87534C10.8456 8.53368 10.565 8.25034 10.2267 8.25034ZM16.1149 7.52167C16.3088 7.51943 16.52 7.51699 16.7119 7.51699C16.9182 7.51699 17.0832 7.68366 17.0832 7.89199V14.592C17.0832 16.6587 15.4248 18.3337 13.3786 18.3337H6.81089C4.66568 18.3337 2.9165 16.5753 2.9165 14.4087V5.42533C2.9165 3.35866 4.58317 1.66699 6.63763 1.66699H11.0436C11.2581 1.66699 11.4231 1.84199 11.4231 2.05033V4.73366C11.4231 6.25866 12.669 7.50866 14.1789 7.51699C14.5316 7.51699 14.8425 7.51963 15.1146 7.52194C15.3263 7.52373 15.5145 7.52533 15.6805 7.52533C15.798 7.52533 15.9502 7.52357 16.1149 7.52167ZM16.3424 6.30536C15.6642 6.30786 14.8647 6.30536 14.2896 6.29953C13.377 6.29953 12.6254 5.54036 12.6254 4.6187V2.42203C12.6254 2.06286 13.0569 1.88453 13.3036 2.1437C13.7503 2.61277 14.3641 3.2576 14.9751 3.89943C15.5842 4.53925 16.1904 5.17608 16.6254 5.63286C16.8663 5.88536 16.6897 6.30453 16.3424 6.30536Z" fill="currentColor"/>
</svg>
