<svg width="20" height="20" viewBox="0 0 20 20" fill="currentColor" xmlns="http://www.w3.org/2000/svg">
    <path
        d="M13.3516 9.09412C14.8691 9.09412 16.0991 7.86412 16.0991 6.34662C16.0991 4.82995 14.8691 3.59912 13.3516 3.59912"
        stroke="currentColor" stroke-width="1.5" stroke-linecap="round" stroke-linejoin="round" />
    <path
        d="M14.6133 12.0801C15.0666 12.1109 15.5166 12.1759 15.9608 12.2742C16.5766 12.3967 17.3183 12.6492 17.5816 13.2017C17.7499 13.5559 17.7499 13.9684 17.5816 14.3226C17.3191 14.8751 16.5766 15.1276 15.9608 15.2542"
        stroke="currentColor" stroke-width="1.5" stroke-linecap="round" stroke-linejoin="round" />
    <path fill-rule="evenodd" clip-rule="evenodd"
        d="M7.9938 12.6719C11.0688 12.6719 13.6955 13.1377 13.6955 14.9985C13.6955 16.8602 11.0855 17.3419 7.9938 17.3419C4.9188 17.3419 2.29297 16.8769 2.29297 15.0152C2.29297 13.1535 4.90214 12.6719 7.9938 12.6719Z"
        stroke="currentColor" stroke-width="1.5" stroke-linecap="round" stroke-linejoin="round" />
    <path fill-rule="evenodd" clip-rule="evenodd"
        d="M7.99318 10.0155C5.96484 10.0155 4.33984 8.38967 4.33984 6.36134C4.33984 4.33384 5.96484 2.70801 7.99318 2.70801C10.0215 2.70801 11.6473 4.33384 11.6473 6.36134C11.6473 8.38967 10.0215 10.0155 7.99318 10.0155Z"
        stroke="currentColor" stroke-width="1.5" stroke-linecap="round" stroke-linejoin="round" />
</svg>
