<svg width="32" height="32" viewBox="0 0 32 32" fill="none" xmlns="http://www.w3.org/2000/svg">
    <path
        d="M12.5 20.5C12.5 20.7652 12.6054 21.0196 12.7929 21.2071C12.9804 21.3946 13.2348 21.5 13.5 21.5C13.7652 21.5 14.0196 21.3946 14.2071 21.2071C14.3946 21.0196 14.5 20.7652 14.5 20.5V19H12.5V20.5Z"
        fill="#FFA993" />
    <path d="M17.5 10H1.5V19H17.5V10Z" fill="#5EAC24" />
    <path d="M17.5 14.5H1.5V19H17.5V14.5Z" fill="#4E901E" />
    <path
        d="M14.5 19H17.5V16C16.7044 16 15.9413 16.3161 15.3787 16.8787C14.8161 17.4413 14.5 18.2044 14.5 19ZM17.5 13V10H14.5C14.5 10.7956 14.8161 11.5587 15.3787 12.1213C15.9413 12.6839 16.7044 13 17.5 13Z"
        fill="#7ED63E" />
    <path
        d="M29.5 15.5H28.5V13C28.5 12.7348 28.3946 12.4804 28.2071 12.2929C28.0196 12.1054 27.7652 12 27.5 12C27.2348 12 26.9804 12.1054 26.7929 12.2929C26.6054 12.4804 26.5 12.7348 26.5 13V12C26.5 11.7348 26.3946 11.4804 26.2071 11.2929C26.0196 11.1054 25.7652 11 25.5 11C25.2348 11 24.9804 11.1054 24.7929 11.2929C24.6054 11.4804 24.5 11.7348 24.5 12V13C24.5 12.7348 24.3946 12.4804 24.2071 12.2929C24.0196 12.1054 23.7652 12 23.5 12C23.2348 12 22.9804 12.1054 22.7929 12.2929C22.6054 12.4804 22.5 12.7348 22.5 13V14.5C22.5 14.2348 22.3946 13.9804 22.2071 13.7929C22.0196 13.6054 21.7652 13.5 21.5 13.5C21.2348 13.5 20.9804 13.6054 20.7929 13.7929C20.6054 13.9804 20.5 14.2348 20.5 14.5V23.086C20.5001 23.3512 20.6054 23.6055 20.793 23.793L21.207 24.207C21.3946 24.3945 21.4999 24.6488 21.5 24.914V26.5H29.5V24.914C29.5001 24.6488 29.6054 24.3945 29.793 24.207L30.207 23.793C30.3946 23.6055 30.4999 23.3512 30.5 23.086V16.5C30.5 16.2348 30.3946 15.9804 30.2071 15.7929C30.0196 15.6054 29.7652 15.5 29.5 15.5Z"
        fill="#FFBCAB" />
    <path
        d="M1.5 16V19H4.5C4.5 18.2044 4.18393 17.4413 3.62132 16.8787C3.05871 16.3161 2.29565 16 1.5 16ZM4.5 10H1.5V13C2.29565 13 3.05871 12.6839 3.62132 12.1213C4.18393 11.5587 4.5 10.7956 4.5 10Z"
        fill="#7ED63E" />
    <path
        d="M6.5 19V21C6.5 21.2652 6.60536 21.5196 6.79289 21.7071C6.98043 21.8946 7.23478 22 7.5 22C7.76522 22 8.01957 21.8946 8.20711 21.7071C8.39464 21.5196 8.5 21.2652 8.5 21V19H6.5Z"
        fill="#FFB8A5" />
    <path
        d="M8.5 19V22C8.5 22.2652 8.60536 22.5196 8.79289 22.7071C8.98043 22.8946 9.23478 23 9.5 23C9.76522 23 10.0196 22.8946 10.2071 22.7071C10.3946 22.5196 10.5 22.2652 10.5 22V19H8.5Z"
        fill="#FFA993" />
    <path
        d="M10.5 19V21C10.5 21.2652 10.6054 21.5196 10.7929 21.7071C10.9804 21.8946 11.2348 22 11.5 22C11.7652 22 12.0196 21.8946 12.2071 21.7071C12.3946 21.5196 12.5 21.2652 12.5 21V19H10.5Z"
        fill="#FFB8A5" />
    <path d="M14.5 1.5H4.5V5.5H14.5V1.5Z" fill="#006DF0" />
    <path d="M30.5 26.5H20.5V30.5H30.5V26.5Z" fill="#006DF0" />
    <path
        d="M9.5 16C10.3284 16 11 15.3284 11 14.5C11 13.6716 10.3284 13 9.5 13C8.67157 13 8 13.6716 8 14.5C8 15.3284 8.67157 16 9.5 16Z"
        fill="#F1F2F2" />
    <path
        d="M9.50025 25.5C9.36764 25.5 9.24046 25.5527 9.14669 25.6464C9.05293 25.7402 9.00025 25.8674 9.00025 26V27C9.00025 27.1326 9.05293 27.2598 9.14669 27.3536C9.24046 27.4473 9.36764 27.5 9.50025 27.5C9.63286 27.5 9.76003 27.4473 9.8538 27.3536C9.94757 27.2598 10.0002 27.1326 10.0002 27V26C10.0002 25.8674 9.94757 25.7402 9.8538 25.6464C9.76003 25.5527 9.63286 25.5 9.50025 25.5ZM7.50025 24.964C7.38541 24.8977 7.24893 24.8797 7.12085 24.9141C6.99276 24.9484 6.88355 25.0322 6.81725 25.147L6.31725 26.013C6.2839 26.0699 6.26213 26.1328 6.2532 26.1981C6.24427 26.2635 6.24834 26.3299 6.2652 26.3937C6.28205 26.4574 6.31135 26.5172 6.3514 26.5696C6.39146 26.622 6.44148 26.6659 6.49858 26.6989C6.55569 26.7319 6.61875 26.7532 6.68414 26.7617C6.74953 26.7702 6.81596 26.7657 6.87959 26.7484C6.94323 26.7311 7.00282 26.7014 7.05493 26.661C7.10705 26.6206 7.15066 26.5703 7.18325 26.513L7.68325 25.647C7.74955 25.5322 7.76752 25.3957 7.7332 25.2676C7.69888 25.1395 7.61508 25.0303 7.50025 24.964ZM5.35325 23.317L4.48725 23.817C4.42992 23.8496 4.37961 23.8932 4.33921 23.9453C4.29881 23.9974 4.26912 24.057 4.25184 24.1207C4.23457 24.1843 4.23005 24.2507 4.23855 24.3161C4.24705 24.3815 4.2684 24.4446 4.30137 24.5017C4.33434 24.5588 4.37828 24.6088 4.43066 24.6488C4.48304 24.6889 4.54282 24.7182 4.60657 24.7351C4.67032 24.7519 4.73678 24.756 4.80211 24.747C4.86744 24.7381 4.93036 24.7163 4.98725 24.683L5.85325 24.183C5.91057 24.1504 5.96088 24.1068 6.00128 24.0547C6.04168 24.0026 6.07138 23.943 6.08865 23.8793C6.10593 23.8157 6.11045 23.7493 6.10195 23.6839C6.09345 23.6185 6.0721 23.5554 6.03913 23.4983C6.00616 23.4412 5.96222 23.3912 5.90984 23.3512C5.85746 23.3111 5.79767 23.2818 5.73392 23.2649C5.67017 23.2481 5.60372 23.244 5.53838 23.253C5.47305 23.2619 5.41013 23.2837 5.35325 23.317ZM12.1832 25.147C12.1507 25.0897 12.107 25.0394 12.0549 24.999C12.0028 24.9586 11.9432 24.9289 11.8796 24.9116C11.816 24.8943 11.7495 24.8898 11.6841 24.8983C11.6188 24.9068 11.5557 24.9281 11.4986 24.9611C11.4415 24.9941 11.3915 25.038 11.3514 25.0904C11.3114 25.1428 11.2821 25.2026 11.2652 25.2663C11.2483 25.3301 11.2443 25.3965 11.2532 25.4619C11.2621 25.5272 11.2839 25.5901 11.3172 25.647L11.8172 26.513C11.8498 26.5703 11.8934 26.6206 11.9456 26.661C11.9977 26.7014 12.0573 26.7311 12.1209 26.7484C12.1845 26.7657 12.251 26.7702 12.3164 26.7617C12.3817 26.7532 12.4448 26.7319 12.5019 26.6989C12.559 26.6659 12.609 26.622 12.6491 26.5696C12.6891 26.5172 12.7184 26.4574 12.7353 26.3937C12.7522 26.3299 12.7562 26.2635 12.7473 26.1981C12.7384 26.1328 12.7166 26.0699 12.6832 26.013L12.1832 25.147ZM14.5132 23.817L13.6472 23.317C13.5325 23.2517 13.3965 23.2345 13.2691 23.2691C13.1417 23.3037 13.0331 23.3873 12.9671 23.5017C12.9011 23.616 12.883 23.7518 12.9167 23.8795C12.9505 24.0071 13.0333 24.1162 13.1472 24.183L14.0132 24.683C14.0701 24.7163 14.1331 24.7381 14.1984 24.747C14.2637 24.756 14.3302 24.7519 14.3939 24.7351C14.4577 24.7182 14.5175 24.6889 14.5698 24.6488C14.6222 24.6088 14.6662 24.5588 14.6991 24.5017C14.7321 24.4446 14.7534 24.3815 14.7619 24.3161C14.7704 24.2507 14.7659 24.1843 14.7487 24.1207C14.7314 24.057 14.7017 23.9974 14.6613 23.9453C14.6209 23.8932 14.5706 23.8496 14.5132 23.817ZM25.5002 9C25.6329 9 25.76 8.94732 25.8538 8.85355C25.9476 8.75979 26.0002 8.63261 26.0002 8.5V7.5C26.0002 7.36739 25.9476 7.24021 25.8538 7.14645C25.76 7.05268 25.6329 7 25.5002 7C25.3676 7 25.2405 7.05268 25.1467 7.14645C25.0529 7.24021 25.0002 7.36739 25.0002 7.5V8.5C25.0002 8.63261 25.0529 8.75979 25.1467 8.85355C25.2405 8.94732 25.3676 9 25.5002 9ZM27.5002 9.536C27.6151 9.6023 27.7516 9.62027 27.8796 9.58595C28.0077 9.55163 28.1169 9.46784 28.1832 9.353L28.6832 8.487C28.7166 8.43012 28.7384 8.36719 28.7473 8.30186C28.7562 8.23653 28.7522 8.17008 28.7353 8.10633C28.7184 8.04258 28.6891 7.98279 28.6491 7.93041C28.609 7.87803 28.559 7.83409 28.5019 7.80112C28.4448 7.76815 28.3817 7.7468 28.3164 7.7383C28.251 7.7298 28.1845 7.73432 28.1209 7.7516C28.0573 7.76887 27.9977 7.79857 27.9456 7.83897C27.8934 7.87937 27.8498 7.92968 27.8172 7.987L27.3172 8.853C27.2509 8.96784 27.233 9.10431 27.2673 9.2324C27.3016 9.36049 27.3854 9.46969 27.5002 9.536ZM29.4002 11.25C29.488 11.2502 29.5743 11.2271 29.6502 11.183L30.5162 10.683C30.5736 10.6504 30.6239 10.6068 30.6643 10.5547C30.7047 10.5026 30.7344 10.443 30.7517 10.3793C30.7689 10.3157 30.7734 10.2493 30.7649 10.1839C30.7565 10.1185 30.7351 10.0554 30.7021 9.99834C30.6692 9.94123 30.6252 9.89121 30.5728 9.85116C30.5205 9.8111 30.4607 9.78181 30.3969 9.76495C30.3332 9.7481 30.2667 9.74402 30.2014 9.75295C30.1361 9.76188 30.0731 9.78365 30.0162 9.817L29.1502 10.317C29.0549 10.372 28.9804 10.457 28.9383 10.5587C28.8962 10.6604 28.8888 10.7731 28.9173 10.8794C28.9458 10.9857 29.0086 11.0797 29.0959 11.1467C29.1832 11.2137 29.2902 11.25 29.4002 11.25ZM22.8172 9.353C22.884 9.4669 22.9931 9.54977 23.1208 9.58352C23.2484 9.61727 23.3843 9.59916 23.4986 9.53314C23.6129 9.46712 23.6965 9.35855 23.7311 9.23113C23.7657 9.10371 23.7485 8.96778 23.6832 8.853L23.1832 7.987C23.1507 7.92968 23.107 7.87937 23.0549 7.83897C23.0028 7.79857 22.9432 7.76887 22.8796 7.7516C22.816 7.73432 22.7495 7.7298 22.6841 7.7383C22.6188 7.7468 22.5557 7.76815 22.4986 7.80112C22.4415 7.83409 22.3915 7.87803 22.3514 7.93041C22.3113 7.98279 22.2821 8.04258 22.2652 8.10633C22.2483 8.17008 22.2443 8.23653 22.2532 8.30186C22.2621 8.36719 22.2839 8.43012 22.3172 8.487L22.8172 9.353ZM20.4872 10.683L21.3532 11.183C21.468 11.2483 21.604 11.2655 21.7314 11.2309C21.8588 11.1963 21.9674 11.1127 22.0334 10.9983C22.0994 10.884 22.1175 10.7482 22.0838 10.6205C22.05 10.4929 21.9672 10.3838 21.8532 10.317L20.9872 9.817C20.9304 9.78365 20.8674 9.76188 20.8021 9.75295C20.7368 9.74402 20.6703 9.7481 20.6066 9.76495C20.5428 9.78181 20.483 9.8111 20.4307 9.85116C20.3783 9.89121 20.3343 9.94123 20.3014 9.99834C20.2684 10.0554 20.247 10.1185 20.2385 10.1839C20.23 10.2493 20.2346 10.3157 20.2518 10.3793C20.2691 10.443 20.2988 10.5026 20.3392 10.5547C20.3796 10.6068 20.4299 10.6504 20.4872 10.683Z"
        fill="#FF9811" />
    <path
        d="M12 4H12.5C12.6326 4 12.7598 3.94732 12.8536 3.85355C12.9473 3.75979 13 3.63261 13 3.5C13 3.36739 12.9473 3.24021 12.8536 3.14645C12.7598 3.05268 12.6326 3 12.5 3H12C11.8674 3 11.7402 3.05268 11.6464 3.14645C11.5527 3.24021 11.5 3.36739 11.5 3.5C11.5 3.63261 11.5527 3.75979 11.6464 3.85355C11.7402 3.94732 11.8674 4 12 4ZM23 28H22.5C22.3674 28 22.2402 28.0527 22.1464 28.1464C22.0527 28.2402 22 28.3674 22 28.5C22 28.6326 22.0527 28.7598 22.1464 28.8536C22.2402 28.9473 22.3674 29 22.5 29H23C23.1326 29 23.2598 28.9473 23.3536 28.8536C23.4473 28.7598 23.5 28.6326 23.5 28.5C23.5 28.3674 23.4473 28.2402 23.3536 28.1464C23.2598 28.0527 23.1326 28 23 28Z"
        fill="#F1F2F2" />
    <path
        d="M29 15.5002V19.5002C29 19.6328 28.9473 19.76 28.8536 19.8537C28.7598 19.9475 28.6326 20.0002 28.5 20.0002C28.1022 20.0002 27.7206 20.1582 27.4393 20.4395C27.158 20.7208 27 21.1023 27 21.5002V22.0002H26.5V21.5002C26.5 20.9697 26.7107 20.461 27.0858 20.086C27.4609 19.7109 27.9696 19.5002 28.5 19.5002V15.5002H29ZM27 12.1387C26.8484 12.2258 26.7225 12.3513 26.6347 12.5025C26.5469 12.6537 26.5005 12.8253 26.5 13.0002V18.0002H27V12.1387ZM23 12.1387C22.8484 12.2258 22.7225 12.3513 22.6347 12.5025C22.5469 12.6537 22.5005 12.8253 22.5 13.0002V18.0002H23V12.1387ZM25 11.1387C24.8484 11.2258 24.7225 11.3513 24.6347 11.5025C24.5469 11.6537 24.5005 11.8253 24.5 12.0002V18.0002H25V11.1387ZM21.707 24.2072L21.293 23.7932C21.1054 23.6057 21.0001 23.3514 21 23.0862V14.5002C21.0008 14.2791 21.0749 14.0646 21.2106 13.8901C21.3463 13.7156 21.536 13.5909 21.75 13.5357C21.6685 13.5131 21.5845 13.5012 21.5 13.5002C21.2348 13.5002 20.9804 13.6055 20.7929 13.7931C20.6054 13.9806 20.5 14.235 20.5 14.5002V23.0862C20.5001 23.3514 20.6054 23.6057 20.793 23.7932L21.207 24.2072C21.3946 24.3947 21.4999 24.649 21.5 24.9142V26.5002H22V24.9142C21.9999 24.649 21.8946 24.3947 21.707 24.2072ZM8 21.8617C8.15156 21.7745 8.27754 21.649 8.3653 21.4978C8.45306 21.3466 8.49951 21.175 8.5 21.0002V19.0002H8V21.8617ZM12 21.8617C12.1516 21.7745 12.2775 21.649 12.3653 21.4978C12.4531 21.3466 12.4995 21.175 12.5 21.0002V19.0002H12V21.8617ZM10 22.8617C10.1516 22.7745 10.2775 22.649 10.3653 22.4978C10.4531 22.3466 10.4995 22.175 10.5 22.0002V19.0002H10V22.8617Z"
        fill="#FF9478" />
    <path
        d="M5.5 14.5C5.76522 14.5 6.01957 14.3946 6.20711 14.2071C6.39464 14.0196 6.5 13.7652 6.5 13.5V12.5L7.207 11.793C7.39455 11.6055 7.49994 11.3512 7.5 11.086V10H14.5V8.914C14.4999 8.6488 14.3945 8.39449 14.207 8.207L13.793 7.793C13.6055 7.60551 13.5001 7.35119 13.5 7.086V5.5H5.5V7.086C5.49994 7.35119 5.39455 7.60551 5.207 7.793L4.793 8.207C4.60545 8.39449 4.50006 8.6488 4.5 8.914V13.5C4.5 13.7652 4.60536 14.0196 4.79289 14.2071C4.98043 14.3946 5.23478 14.5 5.5 14.5Z"
        fill="#FFBCAB" />
    <path
        d="M7 11.086C6.99994 11.3512 6.89455 11.6055 6.707 11.793L6 12.5V13.5C5.99917 13.7211 5.92512 13.9356 5.78943 14.1101C5.65373 14.2846 5.46404 14.4092 5.25 14.4645C5.33146 14.487 5.41549 14.499 5.5 14.5C5.76522 14.5 6.01957 14.3946 6.20711 14.2071C6.39464 14.0196 6.5 13.7652 6.5 13.5V12.5L7.207 11.793C7.39455 11.6055 7.49994 11.3512 7.5 11.086V10H7V11.086ZM14.207 8.207L13.793 7.793C13.6055 7.60551 13.5001 7.35119 13.5 7.086V5.5H13V7.086C13.0001 7.35119 13.1055 7.60551 13.293 7.793L13.707 8.207C13.8945 8.39449 13.9999 8.6488 14 8.914V10H14.5V8.914C14.4999 8.6488 14.3945 8.39449 14.207 8.207ZM14 20.5C13.9992 20.7211 13.9251 20.9356 13.7894 21.1101C13.6537 21.2846 13.464 21.4092 13.25 21.4645C13.3315 21.487 13.4155 21.499 13.5 21.5C13.7652 21.5 14.0196 21.3946 14.2071 21.2071C14.3946 21.0196 14.5 20.7652 14.5 20.5V19H14V20.5Z"
        fill="#FF9478" />
</svg>
