<svg width="32" height="32" viewBox="0 0 32 32" fill="none" xmlns="http://www.w3.org/2000/svg">
    <path
        d="M26.5 20.5V22.5H5.5V20.5C5.50079 20.235 5.6064 19.9811 5.79377 19.7938C5.98113 19.6064 6.23503 19.5008 6.5 19.5H25.5C25.765 19.5008 26.0189 19.6064 26.2062 19.7938C26.3936 19.9811 26.4992 20.235 26.5 20.5Z"
        fill="#58595B" />
    <path
        d="M25 1.5V30.5L23.2 29.5L21.405 30.5L19.605 29.5L17.805 30.5L16.005 29.5L14.205 30.5L12.405 29.5L10.605 30.5L8.805 29.5L7 30.5V1.5H25Z"
        fill="#FFDAAA" />
    <path
        d="M7 28V30.5L8.805 29.5L10.605 30.5L12.405 29.5L14.205 30.5L16.005 29.5L17.805 30.5L19.605 29.5L21.405 30.5L23.2 29.5L25 30.5V10C25 14.7739 23.1036 19.3523 19.7279 22.7279C16.3523 26.1036 11.7739 28 7 28Z"
        fill="#FFC477" />
    <path
        d="M26 6.5V10.5H28V4.5C28 4.23478 27.8946 3.98043 27.7071 3.79289C27.5196 3.60536 27.2652 3.5 27 3.5H25V6.5H26ZM6 6.5H7V3.5H5C4.73478 3.5 4.48043 3.60536 4.29289 3.79289C4.10536 3.98043 4 4.23478 4 4.5V10.5H6V6.5Z"
        fill="#0085FF" />
    <path
        d="M8 16C7.80222 16 7.60888 15.9414 7.44443 15.8315C7.27998 15.7216 7.15181 15.5654 7.07612 15.3827C7.00043 15.2 6.98063 14.9989 7.01922 14.8049C7.0578 14.6109 7.15304 14.4327 7.29289 14.2929C7.43275 14.153 7.61093 14.0578 7.80491 14.0192C7.99889 13.9806 8.19996 14.0004 8.38268 14.0761C8.56541 14.1518 8.72159 14.28 8.83147 14.4444C8.94135 14.6089 9 14.8022 9 15C9 15.2652 8.89464 15.5196 8.70711 15.7071C8.51957 15.8946 8.26522 16 8 16ZM21 15.5C21 15.7652 20.8946 16.0196 20.7071 16.2071C20.5196 16.3946 20.2652 16.5 20 16.5H12C11.7348 16.5 11.4804 16.3946 11.2929 16.2071C11.1054 16.0196 11 15.7652 11 15.5V14.5C11 14.2348 11.1054 13.9804 11.2929 13.7929C11.4804 13.6054 11.7348 13.5 12 13.5H20C20.2652 13.5 20.5196 13.6054 20.7071 13.7929C20.8946 13.9804 21 14.2348 21 14.5V15.5ZM24 16C23.8022 16 23.6089 15.9414 23.4444 15.8315C23.28 15.7216 23.1518 15.5654 23.0761 15.3827C23.0004 15.2 22.9806 14.9989 23.0192 14.8049C23.0578 14.6109 23.153 14.4327 23.2929 14.2929C23.4327 14.153 23.6109 14.0578 23.8049 14.0192C23.9989 13.9806 24.2 14.0004 24.3827 14.0761C24.5654 14.1518 24.7216 14.28 24.8315 14.4444C24.9414 14.6089 25 14.8022 25 15C25 15.2652 24.8946 15.5196 24.7071 15.7071C24.5196 15.8946 24.2652 16 24 16Z"
        fill="#9BC9FF" />
    <path
        d="M30.5 11.5V24C30.4992 24.265 30.3936 24.5189 30.2062 24.7062C30.0189 24.8936 29.765 24.9992 29.5 25H27.5C27.235 24.9992 26.9811 24.8936 26.7938 24.7062C26.6064 24.5189 26.5008 24.265 26.5 24V20.5C26.4992 20.235 26.3936 19.9811 26.2062 19.7938C26.0189 19.6064 25.765 19.5008 25.5 19.5H6.5C6.23503 19.5008 5.98113 19.6064 5.79377 19.7938C5.6064 19.9811 5.50079 20.235 5.5 20.5V24C5.49921 24.265 5.3936 24.5189 5.20623 24.7062C5.01887 24.8936 4.76497 24.9992 4.5 25H2.5C2.23503 24.9992 1.98113 24.8936 1.79377 24.7062C1.6064 24.5189 1.50079 24.265 1.5 24V11.5C1.50079 11.235 1.6064 10.9811 1.79377 10.7938C1.98113 10.6064 2.23503 10.5008 2.5 10.5H29.5C29.765 10.5008 30.0189 10.6064 30.2062 10.7938C30.3936 10.9811 30.4992 11.235 30.5 11.5Z"
        fill="#2488FF" />
    <path
        d="M25 6.5C24.4696 6.5 23.9609 6.71071 23.5858 7.08579C23.2107 7.46086 23 7.96957 23 8.5V10.5H26V6.5H25ZM7 6.5H6V10.5H9V8.5C9 7.96957 8.78929 7.46086 8.41421 7.08579C8.03914 6.71071 7.53043 6.5 7 6.5Z"
        fill="#58595B" />
    <path
        d="M20 13.5H12C11.4477 13.5 11 13.9477 11 14.5V15.5C11 16.0523 11.4477 16.5 12 16.5H20C20.5523 16.5 21 16.0523 21 15.5V14.5C21 13.9477 20.5523 13.5 20 13.5Z"
        fill="#FFCD00" />
    <path
        d="M24 16C24.5523 16 25 15.5523 25 15C25 14.4477 24.5523 14 24 14C23.4477 14 23 14.4477 23 15C23 15.5523 23.4477 16 24 16Z"
        fill="#7ED63E" />
    <path
        d="M8 16C8.55228 16 9 15.5523 9 15C9 14.4477 8.55228 14 8 14C7.44772 14 7 14.4477 7 15C7 15.5523 7.44772 16 8 16Z"
        fill="#7ED63E" />
    <path
        d="M16 22.9998C16.6105 22.9998 17 23.2958 17 23.4998C17 23.6324 17.0527 23.7596 17.1464 23.8534C17.2402 23.9471 17.3674 23.9998 17.5 23.9998C17.6326 23.9998 17.7598 23.9471 17.8536 23.8534C17.9473 23.7596 18 23.6324 18 23.4998C18 22.7893 17.3705 22.2143 16.5 22.0498V21.5293C16.5 21.3967 16.4473 21.2695 16.3536 21.1757C16.2598 21.082 16.1326 21.0293 16 21.0293C15.8674 21.0293 15.7402 21.082 15.6464 21.1757C15.5527 21.2695 15.5 21.3967 15.5 21.5293V22.0498C14.6295 22.2133 14 22.7883 14 23.4998C14 24.3408 14.8785 24.9998 16 24.9998C16.6105 24.9998 17 25.2958 17 25.4998C17 25.7038 16.6105 25.9998 16 25.9998C15.3895 25.9998 15 25.7038 15 25.4998C15 25.3672 14.9473 25.24 14.8536 25.1462C14.7598 25.0525 14.6326 24.9998 14.5 24.9998C14.3674 24.9998 14.2402 25.0525 14.1464 25.1462C14.0527 25.24 14 25.3672 14 25.4998C14 26.2103 14.6295 26.7853 15.5 26.9498V27.4998C15.5 27.6324 15.5527 27.7596 15.6464 27.8534C15.7402 27.9471 15.8674 27.9998 16 27.9998C16.1326 27.9998 16.2598 27.9471 16.3536 27.8534C16.4473 27.7596 16.5 27.6324 16.5 27.4998V26.9498C17.3705 26.7863 18 26.2113 18 25.4998C18 24.6588 17.1215 23.9998 16 23.9998C15.3895 23.9998 15 23.7038 15 23.4998C15 23.2958 15.3895 22.9998 16 22.9998ZM22 23.9998H19.5C19.3674 23.9998 19.2402 24.0525 19.1464 24.1462C19.0527 24.24 19 24.3672 19 24.4998C19 24.6324 19.0527 24.7596 19.1464 24.8534C19.2402 24.9471 19.3674 24.9998 19.5 24.9998H22C22.1326 24.9998 22.2598 24.9471 22.3536 24.8534C22.4473 24.7596 22.5 24.6324 22.5 24.4998C22.5 24.3672 22.4473 24.24 22.3536 24.1462C22.2598 24.0525 22.1326 23.9998 22 23.9998ZM12.5 23.9998H10C9.86739 23.9998 9.74021 24.0525 9.64645 24.1462C9.55268 24.24 9.5 24.3672 9.5 24.4998C9.5 24.6324 9.55268 24.7596 9.64645 24.8534C9.74021 24.9471 9.86739 24.9998 10 24.9998H12.5C12.6326 24.9998 12.7598 24.9471 12.8536 24.8534C12.9473 24.7596 13 24.6324 13 24.4998C13 24.3672 12.9473 24.24 12.8536 24.1462C12.7598 24.0525 12.6326 23.9998 12.5 23.9998Z"
        fill="#FF7956" />
</svg>
