<svg width="40" height="40" viewBox="0 0 40 40" fill="none" xmlns="http://www.w3.org/2000/svg">
    <path
        d="M34.8828 11.9141C34.8828 10.8984 34.0547 10.0781 33.0469 10.0781H15.7344C14.7188 10.0781 13.8984 10.9063 13.8984 11.9141V19.2734C13.8984 20.2891 14.7266 21.1094 15.7344 21.1094H33.0469C34.0625 21.1094 34.8828 20.2813 34.8828 19.2734"
        fill="#ABDC69" />
    <path
        d="M34.8828 16.4531L30.5312 21.1172H33.0469C34.0625 21.1172 34.8828 20.2891 34.8828 19.2812V16.4531ZM18.3203 21.1172H15.7266C14.7109 21.1172 13.8906 20.2891 13.8906 19.2812V16.4531L18.3203 21.1172ZM18.3203 10.0781H15.7266C14.7109 10.0781 13.8906 10.9062 13.8906 11.9141V14.7422L18.3203 10.0781ZM34.8828 11.9141C34.8828 10.8984 34.0547 10.0781 33.0469 10.0781H30.5312L34.8828 14.7422"
        fill="#008800" />
    <path
        d="M24.3906 18.625C26.0647 18.625 27.4219 17.2679 27.4219 15.5938C27.4219 13.9196 26.0647 12.5625 24.3906 12.5625C22.7165 12.5625 21.3594 13.9196 21.3594 15.5938C21.3594 17.2679 22.7165 18.625 24.3906 18.625Z"
        fill="#008800" />
    <path
        d="M36.0469 22.9292C35.5781 22.6402 34.9844 22.6245 34.4609 22.8902L25.8438 26.9292L8.73438 25.7183C8.72656 25.7183 8.71094 25.7183 8.70313 25.7261C8.69531 25.7339 8.6875 25.7417 8.6875 25.7573V33.7105C8.6875 33.7261 8.69531 33.7339 8.70313 33.7417C8.71094 33.7495 8.72656 33.7495 8.74219 33.7417C11.3047 32.7183 14.1797 33.2964 16.7109 33.8042L17.0781 33.8745C18.1875 34.0933 19.1953 34.2105 20.1328 34.2105C21.8438 34.2105 23.3203 33.8355 24.7891 33.062C26.1875 32.2964 27.5234 31.5073 29.1016 30.4995C30.25 29.773 31.3828 28.9683 32.4766 28.1948C32.7969 27.9683 33.1094 27.7495 33.4141 27.5386C34.2266 26.9995 34.9062 26.4527 35.5703 25.9214C36.1641 25.6245 36.8047 25.0698 36.8047 24.4058C36.8047 23.7652 36.5234 23.2261 36.0469 22.9292Z"
        fill="#FAAA58" />
    <path fill-rule="evenodd" clip-rule="evenodd"
        d="M23.9453 29.7576C23.8516 29.7733 23.7578 29.7889 23.6641 29.8045C23.0781 29.8904 22.5 29.8748 21.9141 29.9061C20.9687 29.9529 20.0234 30.0076 19.0781 30.0545C18.9922 30.0623 18.9062 30.0623 18.8281 30.0701C17.4766 30.2029 15.7891 29.4686 14.8438 28.6639L16.2969 28.5936L22.875 27.2654L25.8281 26.9373L27.7422 26.0467C27.7891 26.0233 27.9531 26.5233 27.9609 26.5545C28.3125 28.0701 26.5547 28.9373 25.4062 29.367C24.9375 29.5311 24.4453 29.6639 23.9453 29.7576Z"
        fill="#E3830E" />
    <path
        d="M8.45312 25.6252C9.53125 24.9533 10.2031 24.8127 11.4219 24.547C12.6328 24.2736 13.8516 24.2736 15.0625 24.4142C16.4141 24.547 17.625 25.2267 18.9687 25.3595C20.0469 25.4923 21.125 25.633 22.2031 25.4923C23.0156 25.3595 23.6875 25.2189 24.4922 25.2189C25.4375 25.3517 25.9766 26.1642 25.7031 27.1095C25.4297 27.7814 24.625 28.1877 23.9531 28.1877L15.4609 28.5939"
        fill="#EEC79E" />
    <path
        d="M25.5929 25.844C25.3585 25.4846 24.9757 25.2503 24.4992 25.1878C23.7882 25.1878 23.1945 25.2893 22.507 25.4065C22.4054 25.4222 22.3038 25.4378 22.2101 25.4612C21.1398 25.594 20.046 25.4612 18.9835 25.3284C18.3117 25.2581 17.6632 25.055 17.0382 24.8597C16.4054 24.6565 15.757 24.4534 15.0773 24.3831C13.7101 24.2347 12.5148 24.2737 11.421 24.5159L11.3038 24.5393C10.171 24.7893 9.49135 24.9378 8.44447 25.594C8.42885 25.6018 8.42103 25.6331 8.42885 25.6487C8.43666 25.6643 8.46791 25.6722 8.48353 25.6643C8.49135 25.6565 8.49916 25.6565 8.50697 25.6487L15.4367 28.5784C15.4367 28.5862 15.4367 28.5862 15.4367 28.594C15.4367 28.6175 15.4523 28.6331 15.4757 28.6331L23.9679 28.2268C24.6242 28.2268 25.4679 27.844 25.757 27.1175C25.882 26.6565 25.8195 26.2034 25.5929 25.844Z"
        fill="#FAAA58" />
    <path
        d="M7.36719 22.5391H4.60156C3.75 22.5391 3.17969 23.1094 3.17969 23.9609V35.0234C3.17969 35.875 3.75 36.4453 4.60156 36.4453H7.36719C8.21875 36.4453 8.78906 35.875 8.78906 35.0234V23.9609C8.78906 23.1094 8.21875 22.5391 7.36719 22.5391Z"
        fill="#0085FF" />
</svg>
