<svg width="32" height="32" viewBox="0 0 32 32" fill="none" xmlns="http://www.w3.org/2000/svg">
    <path d="M24.5 28.5H7.5V30.5H24.5V28.5Z" fill="#4E901E" />
    <path d="M30.5 1.5H1.5V10.5H30.5V1.5Z" fill="#2488FF" />
    <path d="M27.5 4.5H4.5V7.5H27.5V4.5Z" fill="#58595B" />
    <path d="M24.5 4.5H7.5V26.5H24.5V4.5Z" fill="#7ED63E" />
    <path d="M24.5 4.5H16V26.5H24.5V4.5Z" fill="#91DC5A" />
    <path
        d="M22.5 4.5V22.5C21.9696 22.5 21.4609 22.7107 21.0858 23.0858C20.7107 23.4609 20.5 23.9696 20.5 24.5H11.5C11.5 23.9696 11.2893 23.4609 10.9142 23.0858C10.5391 22.7107 10.0304 22.5 9.5 22.5V4.5H22.5Z"
        fill="#5EAC24" />
    <path d="M24.5 26.5H7.5V28.5H24.5V26.5Z" fill="#5EAC24" />
    <path d="M24.5 26.5H16V28.5H24.5V26.5Z" fill="#7ED63E" />
    <path d="M24.5 28.5H16V30.5H24.5V28.5Z" fill="#5EAC24" />
    <path
        d="M9.5 4.5V22.5C10.0304 22.5 10.5391 22.7107 10.9142 23.0858C11.2893 23.4609 11.5 23.9696 11.5 24.5H16V4.5H9.5Z"
        fill="#4E901E" />
    <path
        d="M16 17C17.933 17 19.5 15.433 19.5 13.5C19.5 11.567 17.933 10 16 10C14.067 10 12.5 11.567 12.5 13.5C12.5 15.433 14.067 17 16 17Z"
        fill="#F1F2F2" />
    <path
        d="M16 19.5C15.8674 19.5 15.7402 19.5527 15.6464 19.6464C15.5527 19.7402 15.5 19.8674 15.5 20V22C15.5 22.1326 15.5527 22.2598 15.6464 22.3536C15.7402 22.4473 15.8674 22.5 16 22.5C16.1326 22.5 16.2598 22.4473 16.3536 22.3536C16.4473 22.2598 16.5 22.1326 16.5 22V20C16.5 19.8674 16.4473 19.7402 16.3536 19.6464C16.2598 19.5527 16.1326 19.5 16 19.5ZM15.5 7C15.5 7.13261 15.5527 7.25979 15.6464 7.35355C15.7402 7.44732 15.8674 7.5 16 7.5C16.1326 7.5 16.2598 7.44732 16.3536 7.35355C16.4473 7.25979 16.5 7.13261 16.5 7V4.5H15.5V7Z"
        fill="#F1F2F2" />
</svg>
