<svg width="27" height="27" viewBox="0 0 27 27" fill="none" xmlns="http://www.w3.org/2000/svg">
<path d="M0 0H27V27H0V0Z" fill="#C7001D"/>
<path d="M14.3702 20.4835C14.3702 20.5206 14.3746 20.5553 14.3833 20.5877C14.3927 20.6193 14.4061 20.6469 14.4235 20.6706C14.4409 20.6935 14.4626 20.7117 14.4887 20.7251C14.5147 20.7385 14.5443 20.7452 14.5775 20.7452C14.6058 20.7455 14.634 20.7403 14.6604 20.7298C14.6856 20.7188 14.7077 20.7029 14.7267 20.6824C14.7456 20.6619 14.7602 20.637 14.7705 20.6078C14.7815 20.5778 14.7871 20.5435 14.7871 20.5048C14.7889 20.4686 14.7857 20.4323 14.7776 20.397C14.7697 20.3631 14.7571 20.3335 14.7397 20.3082C14.7225 20.2831 14.6993 20.2628 14.6722 20.249C14.6454 20.234 14.6138 20.2265 14.5775 20.2265C14.5469 20.2261 14.5168 20.2334 14.4898 20.2478C14.4643 20.2614 14.4421 20.2804 14.4247 20.3035C14.4065 20.3281 14.3928 20.3558 14.3844 20.3852C14.375 20.416 14.3702 20.4488 14.3702 20.4835ZM14.3702 20.7926H14.2992V19.9399H14.3702V20.2774C14.3931 20.2395 14.4243 20.2111 14.4638 20.1922C14.5028 20.1727 14.5457 20.1626 14.5893 20.1626C14.6359 20.1626 14.6761 20.1717 14.7101 20.1898C14.7438 20.2063 14.773 20.2307 14.7954 20.2608C14.819 20.2915 14.8363 20.3265 14.8463 20.3639C14.8573 20.4033 14.8629 20.4444 14.8629 20.487C14.8629 20.532 14.8578 20.5743 14.8475 20.6137C14.8372 20.6532 14.8206 20.6875 14.7977 20.7168C14.775 20.7457 14.7458 20.7688 14.7125 20.7843C14.6778 20.8008 14.6355 20.8091 14.5858 20.8091C14.566 20.8091 14.5459 20.8064 14.5254 20.8008C14.5044 20.7952 14.4842 20.7872 14.465 20.7772C14.4458 20.7667 14.4279 20.754 14.4117 20.7393C14.3958 20.7233 14.3826 20.7049 14.3726 20.6848H14.3702V20.7926ZM15.0101 20.9595L15.0385 20.9643C15.0488 20.9658 15.059 20.9666 15.0693 20.9666C15.0891 20.9666 15.1052 20.9603 15.1179 20.9477C15.1305 20.935 15.1407 20.9196 15.1486 20.9015C15.1575 20.8837 15.1646 20.865 15.17 20.8458C15.1755 20.8269 15.1818 20.8107 15.1889 20.7973L14.9509 20.1791H15.0302L15.2268 20.7061L15.4234 20.1791H15.5004L15.2718 20.7843C15.2576 20.823 15.2438 20.8577 15.2304 20.8885C15.2177 20.9193 15.2039 20.9453 15.1889 20.9666C15.1747 20.9888 15.1585 21.0053 15.1404 21.0164C15.123 21.0282 15.1021 21.0341 15.0776 21.0341C15.0649 21.0341 15.0527 21.0333 15.0409 21.0318C15.0305 21.0303 15.0202 21.0284 15.0101 21.0258V20.9595ZM16.6163 20.6789H16.6186L16.8045 19.9399H16.8874L16.6636 20.7926H16.5748L16.377 20.0394H16.3747L16.1769 20.7926H16.0881L15.8678 19.9399H15.9484L16.1319 20.6789H16.1343L16.332 19.9399H16.422L16.6163 20.6789ZM16.9996 20.7926V19.9399H17.5668V20.0086H17.0801V20.3165H17.5194V20.3852H17.0801V20.7239H17.5786V20.7926H16.9996ZM17.7199 20.7926V19.9399H17.8431L18.1226 20.6919H18.1249L18.3997 19.9399H18.5217V20.7926H18.4411V20.0323H18.4388L18.1593 20.7926H18.0835L17.8028 20.0323H17.8005V20.7926H17.7199ZM18.6318 20.7926L18.9669 19.9399H19.0581L19.3849 20.7926H19.302L19.2038 20.5249H18.8153L18.7147 20.7926H18.6318ZM18.8426 20.4562H19.1765L19.0095 20.0086L18.8426 20.4562ZM9.14455 18.6302H8.33872L8.21542 18.8978H7.62611V18.8211L8.61535 16.7209H8.87394L9.85262 18.8211V18.8978H9.27084L9.14455 18.6302ZM8.74164 17.638L8.51915 18.1582H8.96564L8.74164 17.638ZM11.8074 16.7419V18.3927H12.5877V18.8978H11.2451V16.7419H11.8074ZM15.585 18.6302H14.7793L14.656 18.8978H14.0667V18.8211L15.0559 16.7209H15.3145L16.2932 18.8211V18.8978H15.7113L15.585 18.6302ZM15.1822 17.638L14.9596 18.1582H15.4062L15.1822 17.638ZM18.2326 17.235H17.7034V16.7419H19.3045V17.235H18.7783V18.8978H18.2326V17.235ZM6.584 15.2525H13.738C13.8788 15.2525 13.9704 15.1043 13.9074 14.9783L13.7603 14.6841L13.4524 14.1393L13.4366 14.1129C13.4197 14.0848 13.3959 14.0616 13.3674 14.0455C13.339 14.0294 13.3068 14.0209 13.2741 14.0209H8.73917C8.59262 14.0209 8.50153 13.8616 8.57594 13.7353L11.5377 8.7067C11.6107 8.58273 11.7898 8.58217 11.8636 8.7057L15.7183 15.1602C15.7352 15.1883 15.759 15.2116 15.7875 15.2278C15.816 15.244 15.8482 15.2525 15.881 15.2525H20.2768C20.4227 15.2525 20.5139 15.0946 20.4409 14.9683L15.1887 5.87355C15.1721 5.84474 15.1482 5.82082 15.1194 5.80419C15.0906 5.78756 15.0579 5.77881 15.0246 5.77881H14.0829C13.9383 5.77881 13.847 5.93422 13.9174 6.06056L18.198 13.7392C18.2684 13.8655 18.1771 14.0209 18.0325 14.0209H16.6165C16.5834 14.0209 16.5509 14.0122 16.5222 13.9957C16.4934 13.9792 16.4695 13.9555 16.4529 13.9268L11.8967 6.10972C11.88 6.0811 11.8562 6.05734 11.8274 6.04084C11.7987 6.02433 11.7662 6.01564 11.733 6.01565H11.714C11.6809 6.01565 11.6483 6.02435 11.6196 6.04087C11.5908 6.0574 11.5669 6.08117 11.5503 6.10982L6.42025 14.9241C6.4034 14.953 6.39452 14.9859 6.39453 15.0194V15.063C6.39453 15.1133 6.41449 15.1615 6.45003 15.197C6.48556 15.2325 6.53375 15.2525 6.584 15.2525Z" fill="white"/>
</svg>
